<?xml version="1.0" encoding="UTF-8"?>
<!-- Generator: Adobe Illustrator 22.1.0, SVG Export Plug-In . SVG Version: 6.00 Build 0)  -->
<svg version="1.1" id="Layer_1" xmlns="http://www.w3.org/2000/svg" xmlns:xlink="http://www.w3.org/1999/xlink" x="0px" y="0px" viewBox="0 0 388 529" style="enable-background:new 0 0 388 529;" xml:space="preserve">
<style type="text/css">
	.st0{fill-rule:evenodd;clip-rule:evenodd;fill:#FFFFFF;}
	.st1{fill-rule:evenodd;clip-rule:evenodd;fill:#FFF12D;}
	.st2{fill-rule:evenodd;clip-rule:evenodd;fill:#CC2128;}
	.st3{fill-rule:evenodd;clip-rule:evenodd;fill:#008FD2;}
	.st4{fill-rule:evenodd;clip-rule:evenodd;fill:#DB812D;}
	.st5{fill-rule:evenodd;clip-rule:evenodd;fill:#59847A;}
</style>
<g>
	<g>
		<path class="st0" d="M231.6,364.4c-25.2,13-51.2,13.4-78.3-4.5l0.1-6.8l9.3-4.7c18.6,10.9,38.2,12.5,59,2.1l9.9,7.2V364.4z"/>
	</g>
	<g>
		<path class="st0" d="M231.6,357.7c-23.4-19.9-49.7-20.8-78.6-4.4l-0.1-9.5l-0.1-0.9l0.3-3.6l0.5-2.2l0.8,0.2l9.4-5.1    c24.2-11.1,47.1-9.4,68.3,9.8l0.3,10.6L231.6,357.7z"/>
	</g>
	<g>
		<path class="st1" d="M191.6,486c0.9,3.3-1.2,7.3-6.8,12.3c-5,8.3-5.3,15.4,1.4,20.6c6.2,2.6,10.8,1,13.8-4.7l4.4-10.6l-1.4,0.6    l0.9-2.5c-6,0.6-5.9,8.4-8.9,12.6c-4.5,1.1-6.7-0.4-6.6-4.7c-0.7-3.6,2.4-7.8,8-12.3c2.1-4.5,2.4-7.9,0.9-10.4    c-1.3,0.1-2.5-0.6-3.5-1.9L191.6,486z"/>
	</g>
	<g>
		<path d="M191.5,520.5c-1.7,0-3.5-0.4-5.4-1.2l-0.1,0c-6.4-5-6.9-12.1-1.5-21.1l0.1-0.1c5.3-4.7,7.6-8.7,6.7-11.9l-0.1-0.3l2.6-1.1    l0.2,0.2c1,1.3,2,1.8,3.2,1.8l0.2,0l0.1,0.2c1.6,2.6,1.4,6.2-0.8,10.7l-0.1,0.1c-5.8,4.7-8.5,8.7-7.9,11.9c0,2,0.4,3.3,1.3,4.1    c1,0.8,2.6,0.9,4.7,0.4c0.9-1.3,1.6-3.1,2.2-4.8c1.3-3.7,2.7-7.4,6.9-7.8l0.6-0.1l-0.8,2.2l1.5-0.7l-4.7,11.4    C198.1,518.4,195.2,520.5,191.5,520.5z M186.3,518.6c6,2.5,10.4,1,13.3-4.6l4-9.7l-1.3,0.6l0.9-2.7c-3.3,0.6-4.5,3.9-5.7,7.3    c-0.7,1.8-1.3,3.7-2.3,5.1l-0.1,0.1l-0.1,0c-2.4,0.6-4.3,0.5-5.5-0.5c-1.1-0.9-1.6-2.4-1.6-4.6c-0.6-3.5,2-7.6,8.1-12.5    c2-4.2,2.3-7.5,0.9-9.8c-1.3,0-2.4-0.6-3.4-1.8l-1.5,0.6c0.7,3.5-1.5,7.5-7,12.3C179.8,507.2,180.2,513.8,186.3,518.6z"/>
	</g>
	<g>
		<path class="st2" d="M267.9,511.2c21.9-42.5,16.2-111.8-35.9-153.6l0.8-5.2l8.2,1.6l2.8-2.3l9,3.7    C295.6,397.6,297.2,465.4,267.9,511.2z"/>
	</g>
	<g>
		<path d="M264.1,517.9l3.5-6.8c22.3-43.3,14.9-112.4-35.8-153.1l-0.2-0.1l0.9-5.7l8.4,1.6l2.8-2.3l9.3,3.9    c20.1,19.8,32.5,47.1,34.7,76.7c2.1,28.2-4.8,56.5-19.5,79.5L264.1,517.9z M232.4,357.5c30.5,24.5,41.7,55.2,45.7,76.6    c4.6,24.6,2.1,50-6.8,70.9c27.2-48.5,19.7-111.4-18.6-149.2l-8.7-3.6l-2.8,2.3l-8-1.6L232.4,357.5z"/>
	</g>
	<g>
		<path class="st2" d="M106.7,502.3c-18-42.7-8-113,46.7-149.1l0.1-5.9l-7.7,0.1l-1.5-1.4l-7.3,2.9    C84.7,395.4,85.9,464.1,106.7,502.3z"/>
	</g>
	<g>
		<path d="M109.9,508.9l-3.5-6.4c-11.3-20.7-15.8-47.6-12.3-73.8c2.8-21.7,12.6-53.2,42.7-79.9l0.1-0.1l7.5-3l1.6,1.4l7.9-0.2    l-0.1,6.5l-0.2,0.1c-52.8,34.8-65.3,104.2-46.6,148.6L109.9,508.9z M137.2,349.4C90.1,391.1,85,454.2,103.9,495.8    c-7.1-21.1-7.6-46.4-1.4-70.6c5.5-21.3,18.8-51.1,50.6-72.1l0-5.3l-7.4,0.1l-1.5-1.3L137.2,349.4z"/>
	</g>
	<g>
		<path class="st3" d="M117.9,368.3c-23,15.1-47.4,27.2-80.7,18.7c30.4-4.6,49.3-15.6,66.4-27.5c10.2-3.4,20.1-8,28.1-12.1l5.4,1.8    C131.2,355.8,124.5,362.3,117.9,368.3z"/>
	</g>
	<g>
		<path d="M58.6,390.1c-6.8,0-13.9-0.8-21.5-2.8l-1.7-0.4l1.8-0.3c31.5-4.7,50.7-16.7,66.3-27.5l0.1,0c8.7-2.9,18.2-7,28-12.1    l0.1-0.1l0.1,0l5.9,1.9l-0.4,0.4c-6.3,7.2-13.5,14.1-19.1,19.2l0,0C101.7,379.3,82.7,390.1,58.6,390.1z M39,387    c33.6,7.9,58.2-5.7,78.7-19.1c5.5-5,12.5-11.7,18.7-18.7l-4.7-1.5c-9.8,5.1-19.2,9.1-27.9,12.1C88.5,370.4,69.6,382.1,39,387z"/>
	</g>
	<g>
		<path class="st3" d="M277.9,369.2c19.8,15.5,43,26.7,70,33.2c-33,3-58.9-4.5-76.7-24.1c-4.5-7.3-10.6-15.1-18-23l3.5-0.9    C263.1,360.6,270,365.9,277.9,369.2z"/>
	</g>
	<g>
		<path d="M334.5,403.3c-27.2,0-48.6-8.3-63.5-24.9c-4.6-7.4-10.6-15.1-18-23l-0.4-0.4l4.3-1.1l0.1,0.1c7,7.1,13.9,11.9,21.1,14.8    l0.1,0c19.9,15.7,43.4,26.8,69.8,33.1l2.1,0.5l-2.2,0.2C343.3,403.1,338.8,403.3,334.5,403.3z M253.9,355.4    c7.2,7.8,13.1,15.4,17.6,22.6c16.8,18.5,41.8,26.7,74.2,24.2c-25.6-6.4-48.4-17.4-67.9-32.7c-7.2-3-14.1-7.8-21.1-14.8    L253.9,355.4z"/>
	</g>
	<g>
		<path class="st2" d="M362.9,351.7c-28.7,23.8-77.8,33.4-106.7,2l-1.2-4.1l7.4-3.5C287.8,373.9,331.5,368.8,362.9,351.7z"/>
	</g>
	<g>
		<path d="M303.6,374c-14.5,0-32.8-4-47.6-20l-0.1-0.1l-1.3-4.4l7.9-3.7l0.2,0.2c25.4,27.7,68.6,22.7,100.1,5.5l3.3-1.8l-2.9,2.4    c-15,12.4-34.5,20.4-53.5,21.8C307.7,373.9,305.7,374,303.6,374z M256.5,353.5c27.2,29.5,73,23.3,103.2,0.3    c-31.4,15.8-72.7,19.6-97.4-7.2l-6.9,3.2L256.5,353.5z"/>
	</g>
	<g>
		<path class="st2" d="M29.4,335.5c29.2,29.4,70.8,20.5,96.3,4.8l5.3,2.3l-1.6,4.2l2.2,0.6C99.6,366.2,52.4,371.5,29.4,335.5z"/>
	</g>
	<g>
		<path d="M80.5,362.4c-1.1,0-2.3,0-3.4-0.1c-20.9-0.9-37.5-10.1-48-26.7l-1.8-2.8l2.4,2.4c27.2,27.3,67.8,22.1,95.9,4.7l0.2-0.1    l5.8,2.5l-1.5,4.1l2.6,0.7l-0.7,0.4C115.8,357.1,97.2,362.4,80.5,362.4z M31.6,338.1c22.3,31,66.1,28.5,99.1,9.4L129,347l1.6-4.2    l-4.8-2.1c-8.5,5.2-25.6,13.8-46.8,14.5C60.7,355.7,44.4,349.8,31.6,338.1z"/>
	</g>
	<g>
		<polygon class="st3" points="117.9,400.8 116.7,473.3 125.3,473.5 125.8,441.7 136.8,445.2 136.8,438 125.6,434.4 125.8,412.6     147.3,420 147.3,411.4   "/>
	</g>
	<g>
		<path d="M125.6,473.8l-9.3-0.2l1.2-73.4l0.5,0.2l29.6,10.7v9.3l-21.5-7.4l-0.2,21l11.2,3.6v8l-11-3.4L125.6,473.8z M117,473    l7.9,0.2l0.5-31.9l11,3.4v-6.5l-11.2-3.6l0.2-22.5l21.5,7.4v-7.8l-28.7-10.4L117,473z"/>
	</g>
	<g>
		<path class="st3" d="M151.7,411.9l-1,51.1c5.2,13.8,21,13.6,26.5,0.5l1.7-45.8l-7.4-1.2l-1.7,45.1c-2.4,6.3-8.8,4.9-12-1.2    l0.9-46.1L151.7,411.9z"/>
	</g>
	<g>
		<path d="M163.9,473.7c-0.1,0-0.2,0-0.2,0c-5.9-0.1-10.9-4.1-13.3-10.6l0-0.1l0-0.1l1-51.6l7.6,2.6l-0.9,46.3c1.7,3.2,4.4,5.2,7,5    c1.9-0.1,3.5-1.5,4.4-3.8l1.7-45.5l8.1,1.3l0,0.3l-1.7,45.9C174.9,469.9,169.7,473.7,163.9,473.7z M151.1,463    c2.3,6.2,7.1,9.9,12.6,10c0.1,0,0.1,0,0.2,0c5.5,0,10.4-3.6,12.9-9.5l1.7-45.4l-6.7-1.1l-1.7,44.8c-1,2.6-2.8,4.2-5,4.3    c-2.8,0.2-5.8-2-7.7-5.5l0-0.1l0-0.1l0.9-45.9l-6.2-2.2L151.1,463z"/>
	</g>
	<g>
		<polygon class="st3" points="186.9,416.9 184.9,475.2 192.6,475.7 193.5,444.5 205,475.9 212.9,475.9 212.7,417.6 205,418.1     204.8,448.6 193.3,417.9   "/>
	</g>
	<g>
		<path d="M213.2,476.2h-8.5l-11-29.9l-0.8,29.7l-8.4-0.6l0-0.3l2.1-58.7l7,1.1l0.1,0.2l10.8,28.9l0.2-28.9l8.4-0.6L213.2,476.2z     M205.2,475.5h7.3l-0.2-57.6l-7,0.5l-0.2,32.1L193,418.2l-5.7-0.9l-2,57.6l7,0.5l0.9-32.7L205.2,475.5z"/>
	</g>
	<g>
		<polygon class="st3" points="255.8,409.8 254.7,476.9 263.1,477.1 263.3,408.5   "/>
	</g>
	<g>
		<path d="M263.4,477.4l-9.1-0.1l1.1-67.8l8.2-1.5l0,0.4L263.4,477.4z M255.1,476.6l7.6,0.1l0.3-67.8l-6.8,1.2L255.1,476.6z"/>
	</g>
	<g>
		<polygon class="st2" points="232.8,352.5 241.3,354.2 243.8,351.8 242.3,348.1 232.5,345.9   "/>
	</g>
	<g>
		<path d="M241.4,354.5l-8.9-1.7l-0.3-7.4l0.5,0.1l10,2.2l1.7,4.2L241.4,354.5z M233.1,352.2l8,1.6l2.3-2.1l-1.4-3.3l-9.2-2    L233.1,352.2z"/>
	</g>
	<g>
		<polygon class="st2" points="242.3,348.1 245.6,344.3 242.1,342.7 232.5,341.9 232.5,345.9   "/>
	</g>
	<g>
		<path d="M242.4,348.5l-10.3-2.3l0-4.7l10.1,0.8l4,1.8L242.4,348.5z M232.9,345.6l9.3,2.1l2.9-3.3l-3-1.3l-9.1-0.7L232.9,345.6z"/>
	</g>
	<g>
		<polygon class="st4" points="244.1,352 253.2,355.5 256.5,354 254.9,349.2 245.6,344.3 242.3,348.1   "/>
	</g>
	<g>
		<path d="M253.3,355.9l-9.4-3.6l-2-4.3l3.7-4.2l9.6,5.1l1.8,5.2L253.3,355.9z M244.4,351.7l8.8,3.4l2.8-1.3l-1.5-4.3l-8.9-4.7    l-3,3.4L244.4,351.7z"/>
	</g>
	<g>
		<path class="st4" d="M255.4,349.3l5.7-2.7l-3.3-4.9l-8.4-4c-2.8,2.6-5.3,4.3-7.2,4.7L255.4,349.3z"/>
	</g>
	<g>
		<path d="M255.4,349.7l-0.2-0.1l-14.1-7.2l0.9-0.2c1.8-0.5,4.3-2.1,7.1-4.7l0.2-0.2l8.7,4.2l3.6,5.3L255.4,349.7z M243.1,342.6    l12.3,6.3l5.1-2.4l-3-4.4l-8.1-3.9C247.1,340.4,244.9,341.9,243.1,342.6z"/>
	</g>
	<g>
		<path class="st4" d="M245.9,336l12.4,5.8l4.8-0.1l-1.7-7.8l-10.4-2.6C250,333.7,247.6,334.4,245.9,336z"/>
	</g>
	<g>
		<path d="M258.2,342.1L258.2,342.1l-13-6l0.4-0.4c0.6-0.5,1.3-1,1.9-1.4c1.3-0.9,2.5-1.7,3.1-3.2l0.1-0.3l0.3,0.1l10.7,2.6l1.8,8.5    L258.2,342.1z M246.6,335.9l11.8,5.5l4.2-0.1l-1.5-7.2l-9.9-2.5c-0.7,1.5-2,2.4-3.2,3.2C247.5,335.2,247,335.5,246.6,335.9z"/>
	</g>
	<g>
		<path class="st4" d="M248.9,325.8l3.5,0.1L251,331l10.7,2.8l7.2-1.2l-1.4-6.4c-7.6-1.4-12.4-3.1-15.1-5L248.9,325.8z"/>
	</g>
	<g>
		<path d="M261.7,334.2L261.7,334.2l-11.2-2.9l1.4-5l-3.8-0.1l4.2-5.4l0.3,0.2c2.8,1.9,7.9,3.6,15,4.9l0.2,0l1.6,7L261.7,334.2z     M251.4,330.8l10.3,2.7l6.8-1.2l-1.3-5.8c-6.9-1.3-11.8-2.9-14.7-4.8l-2.9,3.8l3.3,0.1L251.4,330.8z"/>
	</g>
	<g>
		<path class="st2" d="M232.1,341c3.8,3.3,14,1.5,16.9-3.1l-3.7-1.7C241.6,338.6,236.5,339.7,232.1,341z"/>
	</g>
	<g>
		<path d="M237.8,343c-2.5,0-4.7-0.6-6-1.8l-0.5-0.4l0.6-0.2c0.6-0.2,1.1-0.3,1.7-0.5c4.1-1.1,8.2-2.2,11.3-4.3l0.2-0.1l4.3,1.9    l-0.2,0.3c-1.5,2.4-4.9,4.2-9,4.8C239.4,343,238.6,343,237.8,343z M232.9,341.1c1.7,1.1,4.3,1.4,7.3,1c3.6-0.5,6.8-2.1,8.3-4.1    l-3.2-1.4c-3.2,2.1-7.4,3.2-11.4,4.3C233.5,340.9,233.2,341,232.9,341.1z"/>
	</g>
	<g>
		<path class="st2" d="M231.7,341c7-0.3,13.4-3.5,19-9.5l1.8-5.3l-3.6-0.3c-8.3,7.8-14.9,11.8-20.2,12.5L231.7,341z"/>
	</g>
	<g>
		<path d="M231.5,341.4l-3.7-3.3l0.8-0.1c5.4-0.8,12.1-4.9,20-12.4l0.1-0.1l4.2,0.4l-2,5.8c-5.7,6.1-12.2,9.3-19.3,9.6L231.5,341.4z     M229.5,338.6l2.3,2c6.8-0.4,13.1-3.5,18.6-9.4l1.6-4.8l-3-0.3C241.4,333.4,234.8,337.5,229.5,338.6z"/>
	</g>
	<g>
		<path class="st2" d="M228.8,338.3c8.9-1.9,17.5-8.4,25.7-20.3l0.3-6.1l-5.4,0.2c-9.8,12.3-18,20.3-25.9,22.3L228.8,338.3z"/>
	</g>
	<g>
		<path d="M228.8,338.7l-6.1-4.5l0.7-0.2c7-1.8,14.7-8.5,25.7-22.2l0.1-0.1l6-0.2l-0.3,6.6l-0.1,0.1c-8,11.6-16.7,18.5-25.9,20.5    L228.8,338.7z M224.3,334.4l4.7,3.5c8.9-2,17.4-8.8,25.2-20.1l0.2-5.6l-4.9,0.1C238.8,325.6,231.2,332.3,224.3,334.4z"/>
	</g>
	<g>
		<path class="st2" d="M222.9,334.6c9.4-2,26-18.5,31.9-32.1l0.3-5.6l-4.8,0.3c-8.4,18.4-21.1,30.4-31.1,35.2L222.9,334.6z"/>
	</g>
	<g>
		<path d="M222.8,335l-4.4-2.6l0.6-0.3c9.3-4.4,22.3-16,30.9-35l0.1-0.2l5.4-0.4l-0.4,6.1c-5.8,13.3-22.6,30.2-32.1,32.3L222.8,335z     M220,332.5l3,1.8c9.4-2.1,25.8-18.7,31.5-31.8l0.3-5.1l-4.2,0.3C242,316.3,229.3,327.8,220,332.5z"/>
	</g>
	<g>
		<path class="st2" d="M219.2,332.4c14.6-6.6,31.8-27.9,33.1-44.9l-2.9-6l-7.5,1.9c-5.5,23.8-20,43.6-26.3,47.2L219.2,332.4z"/>
	</g>
	<g>
		<path d="M219.2,332.8l-4.2-2.1l0.6-0.3c6-3.4,20.6-23.1,26.1-47l0-0.2l8-2l3,6.3l0,0.1c-1.4,17.6-19.1,38.8-33.4,45.2L219.2,332.8    z M216.5,330.6l2.8,1.4c14-6.4,31.3-27.1,32.8-44.5l-2.7-5.6l-7,1.8C236.8,307.4,222.9,326.3,216.5,330.6z"/>
	</g>
	<g>
		<path class="st2" d="M215.7,330.7c14.2-10.3,25.8-32.2,28.4-61.7l-8.9-3c-0.1,26.2-10.2,52.1-24,62.7L215.7,330.7z"/>
	</g>
	<g>
		<path d="M215.8,331.1l-5.3-2.2l0.5-0.4c13.9-10.7,23.7-36.4,23.9-62.5l0-0.5l9.7,3.2l0,0.3c-2.4,27.5-13.1,50.6-28.5,61.9    L215.8,331.1z M211.9,328.7l3.8,1.6c15.2-11.2,25.6-33.9,28.1-61l-8.2-2.7C235.3,292.3,225.6,317.7,211.9,328.7z"/>
	</g>
	<g>
		<path class="st2" d="M211.2,328.8c13.2-7.6,26.6-41.9,23.5-70.7l-9.2,0.2c2.3,29.8-8.6,58-20.2,68.5L211.2,328.8z"/>
	</g>
	<g>
		<path d="M211.2,329.2l-6.6-2.2l0.5-0.4c11.7-10.6,22.4-39,20.1-68.2l0-0.4l9.9-0.3l0,0.3c3.1,29.2-10.5,63.5-23.7,71L211.2,329.2z     M206.1,326.7l5.1,1.7c13-7.6,26.2-41.1,23.3-69.9l-8.5,0.2C228.1,287.6,217.6,315.7,206.1,326.7z"/>
	</g>
	<g>
		<path class="st2" d="M205.4,326.8c17.8-17.2,25.5-65.7,18.1-76.3l-8.3,1.8c5.2,16.1-2.2,54.2-15.7,73.2L205.4,326.8z"/>
	</g>
	<g>
		<path d="M205.5,327.2l-0.2,0l-6.4-1.4l0.3-0.4c13.8-19.5,20.5-57.6,15.6-72.9l-0.1-0.4l8.9-1.9l0.1,0.2    c7.6,10.8-0.2,59.4-18.2,76.8L205.5,327.2z M200.1,325.3l5.1,1.1c7.8-7.6,14.6-22.7,18.3-40.3c3.3-15.9,3.2-30-0.2-35.2l-7.7,1.6    C220.4,268.2,213.8,305.7,200.1,325.3z"/>
	</g>
	<g>
		<path class="st2" d="M195.4,325.4h4c12.5-16,21.1-57.6,15.5-74.2l-6.4-6.9l-6.7,8.2C207.5,276.4,206.6,301.5,195.4,325.4z"/>
	</g>
	<g>
		<path d="M199.5,325.8h-4.7l0.2-0.5c10.5-22.2,12.6-46.6,6.4-72.7l0-0.2l7.1-8.6l6.7,7.3c5.7,16.6-3,58.4-15.5,74.5L199.5,325.8z     M195.9,325h3.3c12.3-16,20.9-57.1,15.3-73.6l-6-6.5l-6.3,7.7C208.3,278.5,206.2,302.9,195.9,325z"/>
	</g>
	<g>
		<path class="st2" d="M195,325.6c13.6-28.8,13.1-57.4,2-85.8c-13.8,21.5-17.1,49.1-5.1,85.6L195,325.6z"/>
	</g>
	<g>
		<path d="M195.2,325.9l-3.6-0.2l-0.1-0.2c-11.4-34.7-9.7-62.8,5.1-85.9l0.4-0.6l0.3,0.7c11.8,30.1,11.1,58.2-2,86.1L195.2,325.9z     M192.2,325l2.6,0.2c12.9-27.4,13.6-55.1,2.1-84.6C182.6,263.4,181.1,291,192.2,325z"/>
	</g>
	<g>
		<path class="st2" d="M192.1,248c-1.9-3.1-4.5-5.5-7.8-7.1c-1.8,2.8-4,5.1-6.7,6.9c-4.8,24.5-1.5,55.6,8.2,77.8l6-0.2    C181.8,296.7,181.6,270.8,192.1,248z"/>
	</g>
	<g>
		<path d="M185.5,325.9l-0.1-0.2c-9.7-22.2-13-53.6-8.2-78l0-0.1l0.1-0.1c2.7-1.8,4.9-4.1,6.6-6.8l0.2-0.3l0.3,0.1    c3.4,1.7,6.1,4.1,8,7.2l0.1,0.2l-0.1,0.2c-10.2,22.3-10.3,48.3-0.4,77.2l0.2,0.5L185.5,325.9z M177.8,248    c-4.7,24.2-1.4,55.1,8.1,77.2l5.3-0.2c-9.9-28.8-9.7-54.7,0.5-77.1c-1.8-2.8-4.2-5.1-7.3-6.6C182.7,244,180.5,246.2,177.8,248z"/>
	</g>
	<g>
		<path class="st2" d="M177.5,247.8l-6.5-2.3c-2.4,1.7-7,5.2-6.4,9.2c-1.3,23.7,4.2,52,16.6,71.8l4-0.7    C175.6,302.3,173.5,276.1,177.5,247.8z"/>
	</g>
	<g>
		<path d="M181,326.9l-0.1-0.2c-11.6-18.7-18-46.3-16.6-72c-0.6-4.3,4.4-7.9,6.6-9.5l0.2-0.1l0.2,0.1l6.8,2.4l0,0.3    c-4.2,28.9-1.6,55.1,7.6,77.8l0.2,0.4L181,326.9z M171.1,245.9c-2.1,1.5-6.7,4.9-6.1,8.8c-1.4,25.5,4.9,52.9,16.4,71.4l3.3-0.6    c-9.1-22.6-11.6-48.7-7.5-77.5L171.1,245.9z"/>
	</g>
	<g>
		<path class="st2" d="M164.6,254.5l-8.8-2c-1.6,26.1,2.8,51.8,19.2,75.5l5.6-1.5C168.5,305.4,164.6,280.8,164.6,254.5z"/>
	</g>
	<g>
		<path d="M174.8,328.3l-0.1-0.2c-14.8-21.3-21-46.1-19.3-75.7l0-0.4l9.5,2.1l0,0.3c0,30,5.1,52.8,16,71.9l0.2,0.4L174.8,328.3z     M156.1,252.9c-1.7,29.1,4.5,53.5,19,74.6l4.9-1.3c-10.8-19-15.8-41.7-15.9-71.5L156.1,252.9z"/>
	</g>
	<g>
		<path class="st2" d="M155.5,262l-6.9-0.1l-2.4,0.9c-4,15.2,8.8,45.2,25.5,66.2l3.3-1.1C162.2,307.9,158,284.7,155.5,262z"/>
	</g>
	<g>
		<path d="M171.6,329.5l-0.2-0.2c-15.5-19.5-29.7-50.5-25.5-66.5l0-0.2l2.6-1l0.1,0l7.2,0.1l0,0.3c2.4,22.2,6.5,45.5,19.5,65.7    l0.2,0.4L171.6,329.5z M146.5,263.1c-3.5,14.1,7.8,43.4,25.3,65.5l2.6-0.9c-12.8-20.2-16.8-43.3-19.3-65.3l-6.5-0.1L146.5,263.1z"/>
	</g>
	<g>
		<path class="st2" d="M171.7,329c-12.3-15.9-21.5-34.2-26.4-54l-6-0.6l-2.5,5.2c3.5,15.8,12.6,33.8,30.7,50.9L171.7,329z"/>
	</g>
	<g>
		<path d="M167.4,330.9l-0.2-0.1c-20.4-19.3-28-38.4-30.8-51.1l0-0.1l2.7-5.6l6.5,0.7l0.1,0.2c4.8,19.4,13.6,37.5,26.3,53.8l0.3,0.4    L167.4,330.9z M137.1,279.7c2.8,12.5,10.3,31.4,30.4,50.4l3.5-1.2c-12.5-16.3-21.3-34.2-26.1-53.5l-5.5-0.6L137.1,279.7z"/>
	</g>
	<g>
		<path class="st2" d="M140,290.4l-4.9,0.1l-2.6,1.1c3.4,11.8,12,25.1,31.2,40.4l3.8-1.5C154,316.7,145.2,303.3,140,290.4z"/>
	</g>
	<g>
		<path d="M163.6,332.5l-0.2-0.1c-17.1-13.6-27.4-26.9-31.3-40.6l-0.1-0.3l3.1-1.3l5.2-0.1l0.1,0.2c5.4,13.5,14.6,26.9,27.4,40    l0.4,0.4L163.6,332.5z M132.9,291.8c4,13.4,14.1,26.4,30.8,39.8l3.1-1.3c-12.6-13-21.7-26.3-27.1-39.6l-4.6,0.1L132.9,291.8z"/>
	</g>
	<g>
		<path class="st2" d="M138.9,306.2c-3.2-0.3-5.6,0.4-7.1,2.3c5,8.7,14.7,17.2,28.9,25.4l3.2-1.7    C154.3,324.1,145.9,315.7,138.9,306.2z"/>
	</g>
	<g>
		<path d="M160.7,334.4l-0.2-0.1c-14.2-8.3-24-16.9-29-25.6l-0.1-0.2l0.2-0.2c1.6-2,4-2.8,7.4-2.4l0.2,0l0.1,0.1    c6.6,8.9,14.8,17.4,25,26l0.4,0.3L160.7,334.4z M132.3,308.6c5,8.5,14.6,16.9,28.5,25l2.6-1.3c-10-8.5-18.1-16.9-24.6-25.6    C135.8,306.3,133.6,307,132.3,308.6z"/>
	</g>
	<g>
		<path class="st2" d="M140.9,320.2l-6.1,1.2l2.6,6.2c4.8,3.9,11.1,7.2,17.2,9.8l5.8-3.3L140.9,320.2z"/>
	</g>
	<g>
		<path d="M154.7,337.8l-0.2-0.1c-4.8-2-11.8-5.4-17.3-9.8l-0.1-0.1l-2.8-6.6l6.7-1.3l0.1,0.1l19.9,14.2L154.7,337.8z M137.8,327.4    c5.4,4.3,12.1,7.6,16.9,9.6l5.1-2.9l-18.9-13.5l-5.5,1.1L137.8,327.4z"/>
	</g>
	<g>
		<polygon class="st2" points="140.5,330.2 138.7,331.8 142.2,338.5 153.4,340.2 154,337.1   "/>
	</g>
	<g>
		<path d="M153.6,340.6l-11.7-1.8l-3.6-7l2.2-2l13.9,7.1L153.6,340.6z M142.4,338.1l10.7,1.7l0.5-2.5l-13-6.7l-1.4,1.3L142.4,338.1z    "/>
	</g>
	<g>
		<polygon class="st2" points="141.7,338.4 140.4,340 143.9,343.8 153.2,343.6 153.4,340.2   "/>
	</g>
	<g>
		<path d="M143.7,344.2l-3.8-4.1l1.6-2l12.2,1.9l-0.2,4.1L143.7,344.2z M140.9,340l3.2,3.4l8.8-0.2l0.1-2.8l-11.1-1.7L140.9,340z"/>
	</g>
	<g>
		<polygon class="st2" points="143.2,343.8 146.1,347.6 153.5,347.6 153.4,343.8   "/>
	</g>
	<g>
		<path d="M153.9,347.9H146l-3.5-4.5h11.3L153.9,347.9z M146.3,347.2h6.8l-0.1-3.1h-9.1L146.3,347.2z"/>
	</g>
	<g>
		<path class="st4" d="M252.4,321.2c8,4.3,15.6,5.6,22.2,4.5c0.8-3.2,0.1-6.3-2.2-9.5c-5.8,0.3-12-0.4-17.7-2.4l-0.2,4.1    L252.4,321.2z"/>
	</g>
	<g>
		<path d="M270,326.4c-5.7,0-11.7-1.7-17.7-4.9l-0.3-0.2l2.2-3.5l0.2-4.5l0.5,0.2c5.6,1.9,11.7,2.7,17.6,2.4l0.2,0l0.1,0.2    c2.4,3.2,3.1,6.5,2.3,9.8l-0.1,0.2l-0.2,0C273.1,326.3,271.6,326.4,270,326.4z M252.9,321.1c7.3,3.9,14.7,5.4,21.4,4.3    c0.7-2.9,0-5.9-2.1-8.8c-5.8,0.3-11.7-0.5-17.2-2.3l-0.2,3.7L252.9,321.1z"/>
	</g>
	<g>
		<path class="st4" d="M254.7,313.8c6.3,2.8,13.8,3.2,21.5,1.5l3.9-3.7l-3.6-6.1c-8.9,0.7-16.1,0.3-22.4-0.5l-4.7,7l5.4-0.2    L254.7,313.8z"/>
	</g>
	<g>
		<path d="M267.3,316.7c-4.6,0-8.9-0.9-12.8-2.6l-0.2-0.1l0.1-1.9l-5.7,0.2l5.2-7.7l0.2,0c7.5,1,14.6,1.1,22.3,0.5l0.2,0l3.8,6.5    l-4.2,4l-0.1,0C273.2,316.4,270.2,316.7,267.3,316.7z M255,313.6c6,2.6,13.2,3.1,20.9,1.4l3.6-3.5l-3.3-5.7    c-7.6,0.6-14.6,0.4-22.1-0.5l-4.2,6.2l5.1-0.2L255,313.6z"/>
	</g>
	<g>
		<path class="st4" d="M254.1,305c7.1,1.2,14.6,1.2,22.6,0.2l6.5-7.3l-7-6.8c-8.2,4-15.1,5.8-21.2,6.1v5.3L254.1,305z"/>
	</g>
	<g>
		<path d="M265.6,306.3c-4,0-7.9-0.3-11.6-0.9l-0.4-0.1l1-2.9v-5.5l0.3,0c6.6-0.4,13.5-2.4,21.1-6.1l0.2-0.1l7.4,7.2l-6.8,7.6    l-0.1,0C272.9,306,269.2,306.3,265.6,306.3z M254.5,304.7c6.9,1.1,14.2,1.1,21.9,0.1l6.1-6.9l-6.5-6.4c-7.5,3.6-14.3,5.6-20.8,6    l0,5L254.5,304.7z"/>
	</g>
	<g>
		<path class="st4" d="M252.9,287.4l-2.2,10c9.8,0.6,23.8-3.4,33-12.2l-5.8-7.2C270.3,281.3,261.1,287.2,252.9,287.4z"/>
	</g>
	<g>
		<path d="M252.5,297.8c-0.7,0-1.3,0-1.9-0.1l-0.4,0l2.4-10.7l0.3,0c6-0.1,12.8-3.5,18.7-6.4c2.1-1.1,4.2-2.1,6.1-2.9l0.3-0.1    l6.2,7.7l-0.2,0.2C274.8,294.1,261.7,297.8,252.5,297.8z M251.1,297c9,0.4,22.7-3.1,32-11.9l-5.4-6.7c-1.8,0.8-3.8,1.8-5.8,2.8    c-5.9,3-12.6,6.3-18.7,6.5L251.1,297z"/>
	</g>
	<g>
		<path class="st4" d="M249.5,281.5l3.2,6.2c9.1-1.8,18.2-5.6,27.3-11l3.3-8.8L275,265C266.1,273.1,257.9,278.5,249.5,281.5z"/>
	</g>
	<g>
		<path d="M252.5,288.1l-3.5-6.8l0.4-0.1c8.1-3,16.2-8.2,25.3-16.5l0.2-0.1l8.9,3.1l-3.5,9.2l-0.1,0.1c-9.4,5.6-18.6,9.3-27.5,11.1    L252.5,288.1z M250,281.7l2.9,5.6c8.6-1.8,17.7-5.4,26.9-10.9l3.1-8.3l-7.8-2.7C266,273.5,258.1,278.7,250,281.7z"/>
	</g>
	<g>
		<path class="st4" d="M242,283.4c11.7-1.1,35.7-15.8,39.8-29.1l-9.6-3.8c-9.1,11.1-19.2,18.3-28.3,20.8L242,283.4z"/>
	</g>
	<g>
		<path d="M241.6,283.8l2-12.8l0.2-0.1c9.3-2.6,19.3-9.9,28.1-20.6l0.2-0.2l10.2,4l-0.1,0.3c-4.1,13.6-28,28.2-40.1,29.4    L241.6,283.8z M244.2,271.5l-1.8,11.5c11.7-1.4,34.7-15.7,38.9-28.5l-9.1-3.6C263.5,261.6,253.6,268.9,244.2,271.5z"/>
	</g>
	<g>
		<path class="st4" d="M236,266l8.1,3l-0.2,2.3c12.8-3.3,25.5-13.5,34.4-30.7l-1.5-2.1c-1.4-0.8-4.8-1-8.1-1    C258.2,251.7,246.2,261.7,236,266z"/>
	</g>
	<g>
		<path d="M243.5,271.7l0.2-2.5L235,266l0.8-0.4c10.7-4.5,22.6-14.9,32.6-28.4l0.1-0.1l0.2,0c3.4,0.1,6.8,0.2,8.3,1.1l0.1,0.1    l1.6,2.2l-0.1,0.2c-8.5,16.3-20.8,27.3-34.7,30.9L243.5,271.7z M237,266l7.5,2.8l-0.2,2c13.4-3.7,25.3-14.4,33.6-30.2l-1.3-1.8    c-1.4-0.7-4.6-0.9-7.7-0.9C259.1,251.1,247.5,261.3,237,266z"/>
	</g>
	<g>
		<path class="st4" d="M234.6,257.7c5.6-3.7,15.1-15.4,25.8-29.9l11.4-1.1c3.7,9.4-23.1,34.7-36.7,39.4    C235.1,263.6,235,261,234.6,257.7z"/>
	</g>
	<g>
		<path d="M234.9,266.5l0-0.5c-0.1-2.9-0.3-5.5-0.6-8.2l0-0.2l0.2-0.1c6.3-4.1,17.7-19,25.8-29.9l0.1-0.1l0.2,0l11.7-1.2l0.1,0.3    c0.7,1.9,0.4,4.3-1.1,7.4c-5.2,11.2-24.3,28.5-35.8,32.4L234.9,266.5z M235,257.9c0.3,2.5,0.5,4.9,0.5,7.6    c11.2-4.1,30-21.1,35-31.9c1.3-2.7,1.6-4.9,1.1-6.6l-11,1.1C247.9,245.4,239.9,254.6,235,257.9z"/>
	</g>
	<g>
		<path class="st4" d="M226,258.2v-1.7c10.4-12.1,20.1-27.2,28.4-42.4l9.2-1.2c5.6,8.1-17,35.7-29.3,45.1L226,258.2z"/>
	</g>
	<g>
		<path d="M225.6,258.6v-2.2l0.1-0.1c9.4-11,19.2-25.6,28.4-42.3l0.1-0.2l9.6-1.2l0.1,0.2c5.9,8.5-17.8,36.7-29.4,45.6l-0.1,0.1    L225.6,258.6z M226.3,256.6v1.2l7.8-0.2c12.5-9.7,34-36.5,29.2-44.4l-8.8,1.1C245.5,231,235.7,245.6,226.3,256.6z"/>
	</g>
	<g>
		<path class="st4" d="M242.2,208.1c-3.5,14.6-9.6,28.8-18.8,42.4l2.5,5.8c11.1-12.1,20.4-26.7,28.5-42.9c0.7-3.5,0.1-6.7-1.7-9.7    C248.9,204.1,245.5,205.6,242.2,208.1z"/>
	</g>
	<g>
		<path d="M225.9,256.9l-2.8-6.5l0.1-0.2c8.8-13.1,15.1-27.3,18.7-42.2l0-0.1l0.1-0.1c3.3-2.5,6.8-4.1,10.6-4.5l0.2,0l0.1,0.2    c1.9,3,2.5,6.4,1.8,9.9l0,0.1c-8.6,17.5-18,31.5-28.5,43L225.9,256.9z M223.9,250.5l2.2,5.1c10.4-11.4,19.5-25.2,28-42.4    c0.7-3.3,0.1-6.4-1.6-9.2c-3.5,0.5-6.9,1.9-10,4.3C238.9,223.2,232.7,237.4,223.9,250.5z"/>
	</g>
	<g>
		<path class="st4" d="M223.2,250.7c10.7-15.2,17.7-31.6,20.9-50.3c-0.6-2.7-0.8-5.3-3.1-6.7l-9.7,3.6c-4.2,21.4-10.3,39.4-18,52.4    l1.8,2.6L223.2,250.7z"/>
	</g>
	<g>
		<path d="M215,252.7l-2-3l0.1-0.2c7.6-12.9,13.8-31,18-52.3l0-0.2l0.2-0.1l9.9-3.7l0.1,0.1c2.1,1.3,2.5,3.5,3,5.8    c0.1,0.4,0.1,0.7,0.2,1.1l0,0.1l0,0.1c-3.2,18.5-10.1,35-21,50.5l-0.1,0.1l-0.1,0L215,252.7z M213.8,249.7l1.5,2.2l7.7-1.6    c10.8-15.3,17.6-31.7,20.8-50c-0.1-0.3-0.1-0.7-0.2-1c-0.4-2.2-0.8-4.1-2.5-5.3l-9.3,3.5C227.6,218.7,221.4,236.7,213.8,249.7z"/>
	</g>
	<g>
		<path class="st4" d="M213.4,249.7c10.3-18.5,20.7-50.9,17.6-65.4c-3.1-0.1-5.7,0.4-8.4,1.6c-1.8,21-6.1,41.7-14.2,58.4    C210.4,246.9,211.9,248.6,213.4,249.7z"/>
	</g>
	<g>
		<path d="M213.5,250.2l-0.3-0.2c-1.5-1.1-3-2.8-5-5.4l-0.1-0.2l0.1-0.2c7.3-15.2,12.1-34.8,14.1-58.3l0-0.2l0.2-0.1    c2.8-1.2,5.5-1.8,8.5-1.6l0.3,0l0.1,0.3c3,14.1-6.8,46.2-17.6,65.6L213.5,250.2z M208.9,244.3c1.7,2.3,3.1,3.8,4.4,4.9    c10.6-19.2,20.2-50.5,17.4-64.5c-2.8-0.1-5.1,0.4-7.7,1.5C220.9,209.6,216.2,229.1,208.9,244.3z"/>
	</g>
	<g>
		<path class="st4" d="M222.4,185l-6.1-8.6l-6.3,5.5l-8.3,70.6C211.5,243.5,221.4,212.7,222.4,185z"/>
	</g>
	<g>
		<path d="M201.3,253.4l8.4-71.7l0.1-0.1l6.6-5.8l6.4,9l0,0.1c-1,27.2-10.6,58.3-20.8,67.8L201.3,253.4z M210.4,182.1l-8.2,69.5    c9.7-10,18.8-40.5,19.8-66.4l-5.8-8.2L210.4,182.1z"/>
	</g>
	<g>
		<path class="st4" d="M190,178.7c-2.4-3.6-6.3-6-10.6-7.1c-2.1,3-3.5,6.2-4.2,9.7c1.9,22.2,4.7,46.6,11.3,60.8l5.7,5.9l1.2-3.2    L190,178.7z"/>
	</g>
	<g>
		<path d="M192.2,248.6l-6.1-6.4c-6.6-14.1-9.4-37.6-11.4-60.9l0,0l0-0.1c0.7-3.5,2.1-6.8,4.3-9.9l0.1-0.2l0.2,0.1    c4.7,1.3,8.6,3.8,10.8,7.3l0.1,0.1l0,0.1l3.3,66.1L192.2,248.6z M186.7,241.9l5.2,5.4l1-2.6l-3.3-65.9c-2.2-3.2-5.7-5.6-10.1-6.9    c-2,2.9-3.4,6-4,9.3C177.3,203.4,180.2,227.9,186.7,241.9z"/>
	</g>
	<g>
		<path class="st4" d="M175,181l-10-3.2c-5.3,14.8,0.5,46.9,15.6,67.1l3.1-4l2.7,1.3C179,222.8,177,201.4,175,181z"/>
	</g>
	<g>
		<path d="M180.6,245.5l-0.3-0.4c-15.4-20.6-21-52.6-15.6-67.4l0.1-0.3l10.6,3.4l0,0.2c1.8,19.5,3.9,41.6,11.4,61l0.3,0.8l-3.2-1.5    L180.6,245.5z M165.2,178.3c-4.9,14.4,0.7,46.1,15.4,66l3-3.9l2.2,1c-7.2-19.2-9.3-40.9-11.1-60.1L165.2,178.3z"/>
	</g>
	<g>
		<path class="st4" d="M162.8,189.6l-7.8-2l-4,3.8c-0.3,14.9,5.7,32.8,20.2,54.1l6.5,2.3l3.1-2.9    C170.9,231.3,164.6,213.4,162.8,189.6z"/>
	</g>
	<g>
		<path d="M177.6,248.2l-6.8-2.4l-0.1-0.1c-13.7-20.2-20.5-38.5-20.2-54.3l0-0.1l4.3-4.1l8.3,2.1l0,0.3c1.8,22.9,7.6,41,17.8,55.2    l0.2,0.3L177.6,248.2z M171.3,245.2l6.2,2.2l2.7-2.5c-10.1-14.2-15.9-32.2-17.7-55l-7.4-1.9l-3.8,3.6    C151,207.1,157.7,225.2,171.3,245.2z"/>
	</g>
	<g>
		<path class="st4" d="M151.4,199.7c-2.8-1.5-6.8-2.1-9.6-2.2l-1.4,6.7l-0.2,4.2c5.6,16,13.9,30,25,42.1l5.5-5.3    C159.8,229.1,154.4,213.9,151.4,199.7z"/>
	</g>
	<g>
		<path d="M165.2,251.1l-0.2-0.3c-11-12.1-19.4-26.3-25-42.3l0-0.1l0.2-4.3l1.4-7l0.3,0c2.8,0.1,6.9,0.7,9.7,2.3l0.1,0.1l0,0.2    c3.6,16.9,9.8,31.3,19.3,45.4l0.2,0.2L165.2,251.1z M140.6,208.4c5.5,15.7,13.8,29.8,24.6,41.7l5-4.8    c-9.4-14.1-15.5-28.5-19.2-45.2c-2.7-1.4-6.3-2-9-2.1l-1.3,6.4L140.6,208.4z"/>
	</g>
	<g>
		<path class="st4" d="M140.1,209.1l-9.9-0.4c2.1,13.4,8.9,27.5,25.6,43.9l8.8,2l0.3-3.5C154.1,238.4,146.4,224.1,140.1,209.1z"/>
	</g>
	<g>
		<path d="M164.9,254.9l-9.3-2.1l-0.1-0.1c-15.2-14.8-23.4-28.8-25.7-44.1l-0.1-0.4l10.6,0.5l0.1,0.2c7.3,17.3,15.1,30.6,24.7,41.8    l0.1,0.1L164.9,254.9z M156,252.2l8.3,1.9l0.2-2.9c-9.5-11.2-17.4-24.4-24.6-41.7l-9.3-0.4C133,223.9,141.1,237.7,156,252.2z"/>
	</g>
	<g>
		<path class="st4" d="M132.6,219.4l-4.4-0.6l-3.4-0.2l-2.6,5.5c5.2,13.3,15.4,25.9,33.2,37.9l0.3-9.6    C146.2,243.3,138.5,231.4,132.6,219.4z"/>
	</g>
	<g>
		<path d="M155.8,262.7l-0.5-0.4c-16.8-11.4-27.7-23.8-33.4-38.1l-0.1-0.1l2.7-5.8l3.6,0.2l4.7,0.7l0.1,0.2    c6.7,13.6,14.5,24.7,23.1,32.9l0.1,0.1L155.8,262.7z M122.6,224.1c5.5,13.9,16.2,26.1,32.5,37.2l0.3-8.8    c-8.6-8.2-16.3-19.3-23-32.9l-4.3-0.6L125,219L122.6,224.1z"/>
	</g>
	<g>
		<path class="st4" d="M125,231.2l-9.3,1.1c2.9,11.3,14.4,23.2,30,32.5c1.5-4.4,6.6-2.2,9.8-2.6C148.7,256.2,130.2,241.9,125,231.2z    "/>
	</g>
	<g>
		<path d="M145.8,265.2l-0.4-0.2c-16.3-9.7-27.3-21.6-30.2-32.7l-0.1-0.4l10-1.1l0.1,0.2c4.4,9,18.2,20.5,26.4,27.4    c1.6,1.3,2.9,2.5,4,3.4l0.6,0.5l-0.8,0.1c-1,0.2-2.1,0.1-3.2,0c-2.8-0.2-5.4-0.4-6.3,2.4L145.8,265.2z M116.1,232.5    c2.9,10.7,13.6,22.2,29.4,31.6c1.2-2.9,4.2-2.7,6.9-2.5c0.8,0.1,1.5,0.1,2.2,0.1c-1-0.8-2.1-1.8-3.4-2.8    c-8.2-6.9-21.9-18.3-26.5-27.4L116.1,232.5z"/>
	</g>
	<g>
		<path class="st4" d="M121,243.2l-4.6,1.2l-3.8,1.4l4,12.2c7.1,5.9,14.5,11.6,23.2,16.3l6.3,1.1l-0.2-10.5    C136.4,258.9,128,250.8,121,243.2z"/>
	</g>
	<g>
		<path d="M146.4,275.8l-6.8-1.2c-9.4-5.1-17-11.1-23.3-16.3l-0.1-0.1l-4.1-12.6l4.1-1.5l4.8-1.2l0.1,0.2c9,9.7,16.9,16.6,24.8,21.5    l0.2,0.1L146.4,275.8z M139.9,273.9l5.8,1l-0.1-9.9c-7.9-5-15.7-11.8-24.6-21.4l-4.4,1.1L113,246l3.8,11.8    C123.1,263,130.6,268.9,139.9,273.9z"/>
	</g>
	<g>
		<path class="st4" d="M116.1,258l-7.2,1.5l2.9,8.1l4.3,3.8l20.3,8.8l2.9-5.8C131.2,269.6,123.4,264.1,116.1,258z"/>
	</g>
	<g>
		<path d="M136.6,280.7l-20.7-9l-4.4-4l-3-8.5l7.7-1.6l0.1,0.1c7.3,6.1,15.1,11.6,23.1,16.4l0.3,0.2L136.6,280.7z M116.3,271.1    l19.9,8.7l2.6-5.2c-8-4.8-15.6-10.2-22.8-16.2l-6.6,1.4l2.7,7.6L116.3,271.1z"/>
	</g>
	<g>
		<path class="st4" d="M116.1,271.4l-7.2,4l4,7.8c5.8,3.3,12.4,5.9,19.8,7.9l2.4-0.5l4.8-0.2l-3.6-10.2L116.1,271.4z"/>
	</g>
	<g>
		<path d="M132.7,291.4L132.7,291.4c-7.5-2-14.2-4.7-20-8l-0.1-0.1l-4.2-8.2l7.6-4.2l0.2,0.1l20.4,8.9l3.8,10.8l-5.3,0.2    L132.7,291.4z M113.2,282.9c5.7,3.2,12.3,5.8,19.6,7.8l2.4-0.4l4.4-0.2l-3.4-9.5l-20-8.7l-6.7,3.7L113.2,282.9z"/>
	</g>
	<g>
		<path class="st4" d="M113.1,283.5l-4.6,3.2c1.5,4.2,2.1,8.9,6.8,11.2c5.8,0.9,12.4,1.4,19.6,1.3c-0.6-2.8-1.7-5.5-2.5-8.1    L113.1,283.5z"/>
	</g>
	<g>
		<path d="M133.8,299.6c-7,0-13.3-0.4-18.6-1.3l-0.1,0c-4-1.9-5.1-5.6-6.2-9.1c-0.2-0.8-0.5-1.5-0.7-2.3l-0.1-0.3l5-3.4l0.2,0.1    l19.4,7.6l0.1,0.2c0.2,0.7,0.5,1.5,0.8,2.2c0.7,1.9,1.4,3.9,1.8,5.9l0.1,0.4l-0.4,0C134.5,299.6,134.1,299.6,133.8,299.6z     M115.3,297.6c5.3,0.9,11.5,1.3,18.5,1.3c0.2,0,0.4,0,0.6,0c-0.4-1.8-1.1-3.7-1.7-5.4c-0.2-0.7-0.5-1.4-0.7-2.1l-18.9-7.4    l-4.2,2.9c0.2,0.7,0.4,1.4,0.7,2C110.6,292.4,111.7,295.8,115.3,297.6z"/>
	</g>
	<g>
		<path class="st4" d="M114.3,298l-4,5.5l7.6,5.8l13.6-0.8c1.9-2.1,4.6-2.9,7.5-2.2l-4-7C128,299.4,120.9,299.1,114.3,298z"/>
	</g>
	<g>
		<path d="M117.7,309.7l-0.1-0.1l-7.9-6l4.4-6l0.2,0c6,1,13.1,1.4,20.5,1.2l0.2,0l4.6,7.9l-0.8-0.2c-2.8-0.6-5.3,0.1-7.2,2.1    l-0.1,0.1L117.7,309.7z M110.7,303.4l7.2,5.5l13.3-0.8c1.8-1.9,4.3-2.8,7-2.4l-3.6-6.2c-7.3,0.2-14.2-0.2-20.2-1.2L110.7,303.4z"/>
	</g>
	<g>
		<polygon class="st4" points="117.8,309.5 114.1,314.3 120.1,319.8 136.4,315.7 131.8,308.7   "/>
	</g>
	<g>
		<path d="M120,320.2l-6.4-5.9l4-5.2l14.3-0.8l0.1,0.2l5,7.4l-0.5,0.1L120,320.2z M114.6,314.2l5.6,5.2l15.7-3.9l-4.3-6.4l-13.6,0.8    L114.6,314.2z"/>
	</g>
	<g>
		<polygon class="st4" points="121.1,319.8 119.4,324 125.4,327.3 135.8,324.2 134.9,321.5 140.9,320.2 136.7,315.9   "/>
	</g>
	<g>
		<path d="M125.4,327.6l-6.4-3.5l1.9-4.6l0.2,0l15.8-4l4.8,5l-6.3,1.3l0.9,2.7L125.4,327.6z M119.9,323.8l5.6,3l9.9-2.9l-0.9-2.7    l5.8-1.2l-3.6-3.8l-15.2,3.9L119.9,323.8z"/>
	</g>
	<g>
		<polygon class="st4" points="126,327.3 123.1,333.7 128.2,334.6 138.2,331.6 140.3,330.1 137.5,327.6 135.8,324.2   "/>
	</g>
	<g>
		<path d="M128.2,335L128.2,335l-5.7-1l3.2-7l10.3-3.2l1.8,3.7l3.1,2.7l-2.5,1.9L128.2,335z M123.6,333.4l4.6,0.8l9.9-2.9l1.7-1.3    l-2.6-2.3l-1.5-3.2l-9.4,2.9L123.6,333.4z"/>
	</g>
	<g>
		<path class="st4" d="M128.2,334.9l-3,4.9l5.9,2.6c3-0.2,6-0.8,9-1.9l1.9-2.6c-0.8-2.4-2-4.4-3.5-5.9    C134.9,332.5,131.5,333.5,128.2,334.9z"/>
	</g>
	<g>
		<path d="M131,342.8L131,342.8l-6.3-2.8l3.3-5.4l0.1,0c3.4-1.5,6.9-2.4,10.3-2.8l0.2,0l0.1,0.1c1.6,1.7,2.8,3.7,3.6,6.1l0.1,0.2    l-2,2.8l-0.1,0C137.2,341.9,134.2,342.6,131,342.8L131,342.8z M125.7,339.7l5.4,2.4c3-0.2,5.9-0.8,8.7-1.8l1.7-2.3    c-0.7-2.1-1.8-3.9-3.2-5.5c-3.2,0.4-6.5,1.3-9.8,2.7L125.7,339.7z"/>
	</g>
	<g>
		<path class="st4" d="M131,342.5l-1.3,4.2l7.3,2.4l7.3-2.9c-0.1-2.1-2.4-5-3.9-6.1L131,342.5z"/>
	</g>
	<g>
		<path d="M137,349.5l-7.7-2.5l1.5-4.7l0.2-0.1l9.5-2.6l0.1,0.1c1.6,1.2,4,4.2,4.1,6.4l0,0.3L137,349.5z M130.2,346.5l6.8,2.2    l6.9-2.8c-0.2-1.9-2.2-4.4-3.6-5.5l-9,2.4L130.2,346.5z"/>
	</g>
	<g>
		<path class="st1" d="M262.8,342l16.3,9.7c6.2-1.9,1.9-5.2,2.9-7.8c-5.9-2.6-11.5-5.9-16.2-10.4l-4.2,0.9l1.7,7.2L262.8,342z"/>
	</g>
	<g>
		<path d="M279.1,352.1l-0.1-0.1l-16.7-9.9l0.7-0.6l-1.8-7.4l4.7-1l0.1,0.1c4.2,4,9.3,7.3,16.1,10.3l0.3,0.1l-0.1,0.3    c-0.3,0.8,0,1.6,0.2,2.5c0.5,1.9,1.1,4.1-3.3,5.5L279.1,352.1z M263.5,342l15.7,9.3c3.6-1.1,3.2-2.7,2.7-4.6    c-0.2-0.9-0.5-1.8-0.3-2.7c-6.6-3-11.7-6.2-15.9-10.2l-3.6,0.8l1.7,7.1L263.5,342z"/>
	</g>
	<g>
		<path class="st1" d="M265.8,333.5c5.4,4.9,13.6,9.2,22.4,12.9c5.1-2.3,1.1-6.5,1.6-9.5c-8.1-3.2-14.1-6.4-18.3-10.4l-4-0.3    l1.5,6.6L265.8,333.5z"/>
	</g>
	<g>
		<path d="M288.2,346.7l-0.1-0.1c-10.4-4.3-17.7-8.6-22.5-12.9l-0.5-0.5l3.5-0.8l-1.5-6.7l4.6,0.3l0.1,0.1    c3.8,3.7,9.5,6.8,18.2,10.4l0.3,0.1l0,0.3c-0.1,0.9,0.2,1.9,0.5,3c0.7,2.4,1.5,5.1-2.3,6.7L288.2,346.7z M266.6,333.7    c4.7,4.1,11.8,8.1,21.7,12.3c3-1.4,2.4-3.6,1.7-5.8c-0.3-1-0.6-2.1-0.5-3c-8.6-3.5-14.2-6.7-18.1-10.3l-3.4-0.2l1.5,6.5    L266.6,333.7z"/>
	</g>
	<g>
		<path class="st1" d="M271.2,326.6c6,5.6,15.9,9.9,26.9,12.9l3.8-4.2l-1.9-5.9c-9-1.8-17.4-4.6-25.2-8.4l-0.1,4.5L271.2,326.6z"/>
	</g>
	<g>
		<path d="M298.2,339.8l-0.2-0.1c-12.1-3.2-21.4-7.7-27.1-12.9l-0.4-0.4l3.8-1.3l0.2-4.8l0.5,0.2c7.7,3.7,16.2,6.5,25.1,8.4l0.2,0    l2,6.3L298.2,339.8z M271.9,326.7c5.6,5,14.6,9.2,26.1,12.3l3.5-3.9l-1.8-5.5c-8.7-1.8-17-4.5-24.6-8.1l-0.1,4.2L271.9,326.7z"/>
	</g>
	<g>
		<path class="st1" d="M272.4,316.2l2.5,4.9c14.6,6.4,26.4,9.4,34.9,8.1c1.2-4,0.8-7.2-0.3-10c-11.1,0-21.2-2.5-30-7.1l-3.2,3.3    L272.4,316.2z"/>
	</g>
	<g>
		<path d="M305.7,329.8c-7.9,0-18.2-2.8-31-8.4l-0.1-0.1l-2.8-5.4l4.3-0.8l3.3-3.5l0.2,0.1c8.8,4.7,18.8,7,29.8,7.1h0.2l0.1,0.2    c1.3,3.3,1.4,6.6,0.3,10.2l-0.1,0.2l-0.2,0C308.6,329.7,307.2,329.8,305.7,329.8z M275.2,320.8c14.7,6.5,26.3,9.2,34.3,8    c1-3.3,0.9-6.3-0.3-9.3c-10.9-0.1-20.9-2.4-29.6-7l-3.1,3.2l-3.6,0.7L275.2,320.8z"/>
	</g>
	<g>
		<path class="st1" d="M276.5,305.5l3.2,6.9c12.5,5.7,26.8,7.8,41.2,5.8l-3.6-9.4c-14.2,1.6-27.4,0.3-39.4-4.6L276.5,305.5z"/>
	</g>
	<g>
		<path d="M310.2,319.3c-10.7,0-21.1-2.2-30.6-6.6l-0.1-0.1l-3.4-7.2l1.9-1.7l0.2,0.1c11.4,4.7,24.6,6.3,39.2,4.6l0.3,0l3.9,10.1    l-0.4,0.1C317.4,319,313.8,319.3,310.2,319.3z M280,312.1c12.4,5.6,26.4,7.6,40.5,5.8l-3.4-8.7c-14.5,1.6-27.6,0.1-39.1-4.6    l-1.1,1L280,312.1z"/>
	</g>
	<g>
		<path class="st1" d="M278,304.2c15.9,6.5,33.6,6.9,52.2,1.9c0.3-3.5-1.8-6.5-4.9-9.2c-15.4,3.8-28.3,5-42.2,1.1    C282,299.7,279.6,301.5,278,304.2z"/>
	</g>
	<g>
		<path d="M305.7,309.8c-9.8,0-19.1-1.8-27.9-5.3l-0.4-0.2l0.2-0.4c0.9-1.5,2-2.7,3-3.8c0.8-0.9,1.6-1.7,2.1-2.5l0.1-0.2l0.3,0.1    c12.5,3.5,24.6,3.2,42-1.1l0.2,0l0.1,0.1c3.7,3.2,5.3,6.3,5,9.6l0,0.2l-0.2,0.1C321.8,308.7,313.6,309.8,305.7,309.8z M278.5,304    c15.5,6.2,32.7,6.8,51.4,1.8c0.2-2.9-1.3-5.6-4.7-8.6c-17.3,4.2-29.5,4.6-41.9,1.1c-0.5,0.8-1.3,1.6-2,2.4    C280.3,301.7,279.3,302.7,278.5,304z"/>
	</g>
	<g>
		<path class="st1" d="M276.1,291.1c1.9,2.4,5.2,5.3,7,6.8c19,4.7,36.6,1.9,53.6-4.6l1.2-4.6l-4.2-6.8c-17.3,5.7-33.9,6.7-49.6,3.2    C281.7,287.2,277.8,289.3,276.1,291.1z"/>
	</g>
	<g>
		<path d="M302.3,300.6c-6.5,0-12.9-0.8-19.2-2.4l-0.2-0.1l-0.7-0.6c-1.8-1.6-4.6-4.1-6.3-6.2l-0.2-0.2l0.2-0.2    c0.9-1,2.5-2.1,4.1-3.2c1.4-0.9,2.8-1.9,3.8-2.8l0.1-0.1l0.2,0c15.6,3.5,32.3,2.5,49.4-3.2l0.3-0.1l4.4,7.2l-1.2,5l-0.2,0.1    C324.6,298.3,313.3,300.6,302.3,300.6z M283.3,297.6c17,4.2,33.9,2.8,53.1-4.5l1.1-4.3l-4-6.4c-17.1,5.6-33.7,6.6-49.4,3.1    c-1.1,0.9-2.4,1.9-3.8,2.8c-1.5,1-2.9,2-3.8,2.9c1.6,2,4.2,4.3,6,5.9L283.3,297.6z"/>
	</g>
	<g>
		<path class="st1" d="M277.8,278l5.8,7.2c24,4.1,44,0.8,60.3-7.7l1.3-5.3l-6-6.7c-20.6,9.3-40.1,13.1-58.8,11.3L277.8,278z"/>
	</g>
	<g>
		<path d="M303.4,287.3c-6.4,0-13-0.6-19.8-1.7l-0.1,0l-6.2-7.6l3-1.5l0.1,0c18.5,1.8,38.2-2,58.6-11.2l0.2-0.1l6.3,7.1l-1.4,5.6    l-0.1,0.1C331.9,284.1,318.3,287.3,303.4,287.3z M283.8,284.8c22.6,3.8,42.7,1.2,59.8-7.7l1.2-4.9l-5.7-6.4    c-20.4,9.2-40.1,13-58.6,11.2l-2.1,1L283.8,284.8z"/>
	</g>
	<g>
		<path class="st1" d="M280.4,276.7l3.1-9.1c17.9,0.1,38.5-7,61.3-17.1l4.8,5.1l-0.4,5.1C323.1,274.3,300.1,279.6,280.4,276.7z"/>
	</g>
	<g>
		<path d="M291,277.8c-3.7,0-7.2-0.3-10.7-0.8l-0.4-0.1l3.3-9.7l0.3,0c0.2,0,0.3,0,0.5,0c15.6,0,33.8-5.1,60.7-17l0.2-0.1l5,5.4    l-0.4,5.4l-0.2,0.1C327.8,272.2,308.3,277.8,291,277.8z M280.8,276.4c19.5,2.7,42.3-2.6,68-15.9l0.3-4.7l-4.5-4.8    c-26.9,11.9-45.1,17-60.8,17c-0.1,0-0.1,0-0.2,0L280.8,276.4z"/>
	</g>
	<g>
		<path class="st1" d="M279.8,258.7L275,265l8,2.9c23.9-1.5,44.8-7.8,63.9-18.5l5.1-8l-4.4-8.4C322.6,246.1,299.9,255.3,279.8,258.7    z"/>
	</g>
	<g>
		<path d="M282.9,268.3L282.9,268.3l-8.5-3.1l5.2-6.8l0.1,0c18.6-3.1,40.7-11.5,67.6-25.6l0.3-0.2l4.6,8.9l-0.1,0.2l-5.2,8.1    C327.4,260.7,306.5,266.8,282.9,268.3L282.9,268.3z M275.5,264.8l7.4,2.7c23.4-1.5,44.1-7.5,63.6-18.4l4.9-7.7l-4.1-7.9    c-26.7,14-48.8,22.3-67.4,25.4L275.5,264.8z"/>
	</g>
	<g>
		<path class="st1" d="M272.7,250.7l9.1,3.6l-2,4.3c20-2.7,42.8-11.7,67.7-25.6c9.9-8.1,7.4-12.6-0.7-15.4    C327.3,230.7,301.9,241.1,272.7,250.7z"/>
	</g>
	<g>
		<path d="M279.2,259.1l2.1-4.6l-9.7-3.8l0.9-0.3c33.2-11,56.7-21.5,74-33.1l0.1-0.1l0.2,0.1c4.5,1.6,6.9,3.5,7.3,5.9    c0.5,2.8-1.6,6.1-6.5,10.1c-25.9,14.4-48.7,23.1-67.9,25.7L279.2,259.1z M273.7,250.8l8.6,3.4l-1.9,4.1    c19-2.7,41.5-11.3,66.9-25.5c4.5-3.8,6.6-6.9,6.2-9.4c-0.4-2.1-2.6-3.9-6.7-5.3C329.7,229.5,306.4,239.9,273.7,250.8z"/>
	</g>
	<g>
		<path class="st1" d="M278.5,240.5l-6.6,10.4c24.1-5.4,49.4-17.1,75.4-33.7c11.5-13.7,2-12.8-4.5-16.9    C324.3,217.3,303.3,231.3,278.5,240.5z"/>
	</g>
	<g>
		<path d="M271.1,251.5l7.2-11.2l0.1,0c23-8.6,44-21.7,64.1-40.1l0.2-0.2l0.2,0.1c1.4,0.9,2.9,1.5,4.3,2.1c2.8,1.2,5.2,2.2,5.7,4.5    c0.6,2.4-1.1,5.7-5.4,10.9l-0.1,0.1c-26.9,17.1-52.3,28.5-75.6,33.7L271.1,251.5z M278.8,240.8l-6.1,9.6    c22.9-5.3,47.9-16.5,74.4-33.4c4-4.8,5.7-8.1,5.2-10.2c-0.5-1.9-2.7-2.9-5.3-4c-1.4-0.6-2.8-1.2-4.2-2    C322.7,219.2,301.8,232.3,278.8,240.8z"/>
	</g>
	<g>
		<path class="st1" d="M278.1,240.6c25.6-8.9,49-24.9,70.7-46.2c4-5.8-1.2-8.4-9.6-9.4c-19.9,22.1-43,38.4-68.9,49.7l-1.6,2.8    C271.9,237.7,277.4,236.6,278.1,240.6z"/>
	</g>
	<g>
		<path d="M277.9,241.1l-0.1-0.4c-0.5-2.8-3.8-2.8-6.8-2.8c-0.8,0-1.6,0-2.3,0l-0.6-0.1l2-3.4l0.1,0c26.4-11.6,49.6-28.3,68.7-49.6    l0.1-0.1l0.2,0c6.3,0.7,9.9,2.2,11,4.6c0.7,1.5,0.3,3.3-1.1,5.4c-23.1,22.6-46.3,37.8-70.9,46.4L277.9,241.1z M271.8,237.2    c2.7,0,5.8,0.2,6.6,3c24.4-8.6,47.4-23.6,70.2-46c1.2-1.8,1.6-3.4,1-4.6c-0.9-2.1-4.4-3.5-10.2-4.2c-19.2,21.3-42.3,38-68.8,49.6    l-1.3,2.2c0.5,0,1.1,0,1.6,0C271.3,237.2,271.5,237.2,271.8,237.2z"/>
	</g>
	<g>
		<path class="st1" d="M270.2,235c26.8-11.3,52.5-28.7,72.7-54.6c3.4-12.8-1.5-13.4-10-14.1c-16.5,25.3-40.4,45.8-71.5,61.4l10.5-1    C272.8,229.2,271.5,232,270.2,235z"/>
	</g>
	<g>
		<path d="M269.6,235.6l0.7-1.6c1-2.5,2-4.9,1.5-7l-12.2,1.2l1.7-0.9c31.1-15.7,55.1-36.3,71.4-61.3l0.1-0.2l0.2,0    c4.5,0.4,8.4,0.7,10.3,3.3c1.5,2.2,1.5,5.6,0,11.3l-0.1,0.1c-18.5,23.7-43.1,42.2-72.9,54.7L269.6,235.6z M272.3,226.3l0.1,0.3    c0.8,2.4-0.3,5-1.5,7.8c29.3-12.5,53.4-30.7,71.7-54.1c1.4-5.3,1.4-8.7,0.1-10.6c-1.5-2.1-4.6-2.6-9.5-3    c-16.1,24.6-39.6,44.9-69.9,60.5L272.3,226.3z"/>
	</g>
	<g>
		<path class="st1" d="M260.5,227.8c35.5-15.5,62.2-41.6,77.8-70.5c-0.3-7.6-10.2-6.2-13.8-6.4c-18.3,28.3-38,50.8-59.8,65    C265,218.6,262.8,224.7,260.5,227.8z"/>
	</g>
	<g>
		<path d="M259.4,228.7l0.8-1.1c2.3-3,4.4-9.1,4.1-11.7l0-0.2l0.2-0.1c20.7-13.4,40.2-34.7,59.7-64.9l0.1-0.2l0.2,0    c0.6,0,1.3,0,2.1,0c4.4-0.1,11.8,0,12.1,6.7l0,0.1l0,0.1c-16.7,30.9-44.3,56-78,70.7L259.4,228.7z M265,216.1    c0.2,2.6-1.5,7.7-3.5,10.9c32.9-14.7,60-39.4,76.4-69.8c-0.3-6-6.9-5.9-11.3-5.9c-0.7,0-1.4,0-1.9,0    C305.2,181.4,285.6,202.6,265,216.1z"/>
	</g>
	<g>
		<path class="st1" d="M264.6,215.7c25.9-16.6,46.2-42.1,63.1-70.9c0.5-8.2-4-11.1-13.6-8.7c-13.9,29.5-33.1,55.5-59.7,78l9.5-1.2    L264.6,215.7z"/>
	</g>
	<g>
		<path d="M264.4,216.2l-0.7-3l-10.4,1.3l0.9-0.8c25.6-21.6,45.1-47.1,59.6-77.8l0.1-0.2l0.2,0c5.3-1.3,9.2-1,11.5,0.9    c1.9,1.6,2.8,4.4,2.6,8.2l0,0.2c-19.3,32.8-39.9,56.1-63.2,71L264.4,216.2z M264.2,212.5l0.7,2.6c23-14.9,43.4-37.9,62.5-70.4    c0.2-3.5-0.6-6.1-2.3-7.5c-2.1-1.7-5.7-2-10.7-0.8c-14.4,30.4-33.6,55.7-58.8,77.1L264.2,212.5z"/>
	</g>
	<g>
		<path class="st1" d="M254.7,213.8c24.5-18,43.4-45.8,59.4-77.9c1.3-5.8,0-9.9-2.9-12.9l-7.9-0.3c-11.3,28.4-27.4,55.6-52.1,80.5    C253.8,203.6,254.9,207,254.7,213.8z"/>
	</g>
	<g>
		<path d="M254.3,214.5l0-0.7c0.2-6.6-0.8-9.9-3.2-10.3l-0.7-0.1l0.5-0.5c22.5-22.7,39.5-49,52-80.4l0.1-0.2l8.3,0.3l0.1,0.1    c3.2,3.3,4.2,7.7,3,13.3c-18.2,36.5-37.7,62-59.6,78.1L254.3,214.5z M251.9,203c2.2,0.8,3.3,4.1,3.2,10.1    c21.5-16.1,40.8-41.4,58.7-77.3c1.1-5.2,0.2-9.3-2.7-12.4l-7.5-0.3C291.1,154.2,274.3,180.3,251.9,203z"/>
	</g>
	<g>
		<path class="st1" d="M244.6,200.7c-1.3,2.7-1,4.3-1.8,7c3.3-1.3,6.3-2.8,9.2-4c23.1-23.4,39-51.2,51.5-81    c-0.4-3.8-1.5-7.2-3.7-9.8c-3.2-1.1-7.4-1.4-11.2-1.1C280.3,142.4,267,172.9,244.6,200.7z"/>
	</g>
	<g>
		<path d="M242.2,208.3l0.2-0.7c0.3-1,0.5-1.9,0.6-2.7c0.2-1.3,0.4-2.6,1.2-4.3l0-0.1c20.1-24.9,34.5-53.9,44-88.7l0.1-0.2l0.3,0    c4.3-0.3,8.4,0.1,11.4,1.1l0.1,0l0.1,0.1c2.1,2.4,3.3,5.7,3.8,10l0,0.1l0,0.1c-14.5,34.3-30.9,60.1-51.6,81.1l-0.1,0.1    c-1.3,0.5-2.6,1.1-3.9,1.7c-1.7,0.8-3.5,1.5-5.3,2.3L242.2,208.3z M244.9,200.9c-0.7,1.6-0.9,2.8-1.2,4.1    c-0.1,0.7-0.2,1.3-0.4,2.1c1.6-0.6,3.1-1.3,4.6-2c1.3-0.6,2.6-1.2,3.9-1.7c20.6-20.9,37-46.6,51.4-80.8c-0.4-4-1.6-7.1-3.5-9.4    c-2.8-1-6.7-1.4-10.7-1.1C279.4,146.9,265,176,244.9,200.9z"/>
	</g>
	<g>
		<path class="st1" d="M244.2,200.3c21.1-23.4,36.9-55.1,45.6-93.2l-3.7-6.8c-4-1.3-7.8-0.6-11.2,2.2c-2.8,34.5-18.9,67.8-34.4,90.7    C242.3,193.6,243.5,197.7,244.2,200.3z"/>
	</g>
	<g>
		<path d="M244,201.1l-0.2-0.6c-0.5-1.8-1.7-6.5-3.5-6.9l-0.5-0.1l0.3-0.4c9.2-13.7,31.1-49.8,34.3-90.5l0-0.2l0.1-0.1    c3.5-2.9,7.4-3.6,11.6-2.3l0.1,0l3.9,7.1l0,0.1c-8.5,37.3-24.3,69.6-45.7,93.3L244,201.1z M240.9,193c1.6,0.8,2.6,3.7,3.4,6.6    c21-23.6,36.6-55.5,45-92.4l-3.6-6.6c-3.8-1.2-7.4-0.5-10.6,2.1C271.8,143.1,250.3,179,240.9,193z"/>
	</g>
	<g>
		<path class="st1" d="M231.8,196.9c3.6-0.9,6.9-2,8.8-4c22.4-33.9,34.3-67.3,34.2-97.5c-2-8.5-10.1-1.4-15.2,0.2    c-3,34.5-12.2,65.3-27.5,92.2L231.8,196.9z"/>
	</g>
	<g>
		<path d="M231.4,197.4l0.3-9.7c15.3-26.7,24.5-57.7,27.5-92.1l0-0.2l0.2-0.1c1.2-0.4,2.6-1.1,4-1.8c3.2-1.6,6.6-3.3,9-2.2    c1.3,0.6,2.2,1.9,2.7,4c0.1,30-11.7,63.7-34.2,97.8c-2,1.9-5,3-9,4.1L231.4,197.4z M232.4,188l-0.2,8.5c3.2-0.9,6.4-1.9,8.2-3.7    c22.4-33.8,34.2-67.5,34.1-97.2c-0.4-1.8-1.2-2.9-2.2-3.4c-2.1-1-5.5,0.7-8.4,2.2c-1.4,0.7-2.7,1.4-3.9,1.8    C256.9,130.3,247.6,161.2,232.4,188z"/>
	</g>
	<g>
		<path class="st1" d="M259,84.2l-16.7,5.9c2.8,29.8-3.1,61.4-19.5,95.4l8.1-1.3l0.9,4.9C253.9,146.8,261.3,111.5,259,84.2z"/>
	</g>
	<g>
		<path d="M231.7,190.2l-1-5.6l-8.4,1.4l0.3-0.6c15.7-32.6,22.3-64.6,19.4-95.2l0-0.3l0.3-0.1l17.1-6.1l0,0.5    c2.6,29.8-6.8,66.1-27.2,105.1L231.7,190.2z M231.2,183.7l0.8,4.2c19.8-38.3,29.1-74,26.7-103.3l-16,5.7    c2.8,30.4-3.7,62.3-19.2,94.7L231.2,183.7z"/>
	</g>
	<g>
		<path class="st1" d="M226.4,85.7c4-3.2,9.2-5.3,14.5-6.2c5.4,28.8,3.8,61.9-18.2,105.3l-4.3-5.8C232.3,139.7,232.7,110,226.4,85.7    z"/>
	</g>
	<g>
		<path d="M222.7,185.5L218,179l0.1-0.2c12.5-35.3,15.1-65.7,8-93.1l-0.1-0.2l0.2-0.1c4-3.2,9.2-5.4,14.6-6.2l0.3-0.1l0.1,0.3    c6.5,34.6,0.7,68.1-18.2,105.6L222.7,185.5z M218.8,178.9l3.8,5.2c18.6-36.9,24.3-70.1,17.9-104.2c-5.1,0.9-10,2.9-13.8,5.9    C233.9,113.2,231.3,143.7,218.8,178.9z"/>
	</g>
	<g>
		<path class="st1" d="M222.6,75.2c10.8,25.6,11.9,58.2-4.3,103.5l-2-2.2l-6.3,5.4c2.9-36.1,3.5-70.2,2.2-102.6    C214.8,76.9,218.5,75.1,222.6,75.2z"/>
	</g>
	<g>
		<path d="M209.6,182.7l0.1-0.9c2.8-34.6,3.5-69.2,2.2-102.6l0-0.2L212,79c3-2.8,6.9-4.3,10.6-4.1l0.2,0l0.1,0.2    c11.9,28.3,10.5,62.3-4.3,103.8l-0.2,0.6l-2.2-2.4L209.6,182.7z M212.7,79.4c1.3,33.1,0.6,67.3-2.2,101.6l5.9-5l1.9,2.1    c14.5-41,15.9-74.5,4.2-102.5C219,75.5,215.5,76.9,212.7,79.4z"/>
	</g>
	<g>
		<path class="st1" d="M194.6,76.2c-3.6-3.4-7.5-5.5-11.7-6.1c-10.1,23.3-13.1,56.3-1.8,101.8c5.2,2.7,8,5.1,8.8,8.4    C189.7,145.9,191.5,111.2,194.6,76.2z"/>
	</g>
	<g>
		<path d="M190.3,183.3l-0.7-2.9c-0.7-3-3.2-5.3-8.6-8.2l-0.1-0.1l0-0.2c-10.2-41.4-9.6-75.7,1.9-102.1l0.1-0.3l0.3,0    c4.2,0.7,8.2,2.8,11.9,6.2l0.1,0.1l0,0.2c-3.3,37.5-4.9,71.5-4.7,104.1L190.3,183.3z M181.4,171.7c4.4,2.3,6.9,4.4,8.1,6.7    c-0.1-31.9,1.4-65.3,4.7-102c-3.4-3.2-7.2-5.2-11.1-5.9C171.9,96.6,171.4,130.7,181.4,171.7z"/>
	</g>
	<g>
		<path class="st1" d="M179.4,80.3l-9.9-6.6c-3.4-1.7-5-0.1-5.9,3.1c-6.1,32.5-2.6,68.4,11.5,104.2l3.8-9.7l2.3,0.6    C172.5,138.8,172.5,108.6,179.4,80.3z"/>
	</g>
	<g>
		<path d="M175,182l-0.3-0.8c-13.8-34.9-17.8-71-11.6-104.4c0.6-2.1,1.4-3.3,2.6-3.8c1-0.5,2.3-0.3,3.9,0.5l10.2,6.7l-0.1,0.2    c-7.2,29.4-6.6,59.3,1.7,91.4l0.2,0.6l-2.5-0.7L175,182z M167,73.4c-0.4,0-0.7,0.1-1,0.2c-1,0.4-1.7,1.5-2.2,3.3    c-6.1,33-2.3,68.6,11.2,103.1l3.6-9.1l2,0.5c-8.2-32-8.7-61.7-1.6-90.9l-9.7-6.4C168.4,73.6,167.7,73.4,167,73.4z"/>
	</g>
	<g>
		<path class="st1" d="M162.5,82.6c-3.7-3.6-11.7-7.1-16-4.2c-2.9,31.8,2.6,64.8,18.4,99.5L175,181    C160.5,147.5,158.9,110.4,162.5,82.6z"/>
	</g>
	<g>
		<path d="M175.7,181.6l-11-3.3l-0.1-0.1c-15.3-33.5-21.5-67-18.5-99.7l0-0.2l0.1-0.1c4.4-3,12.6,0.5,16.5,4.2l0.1,0.1l0,0.2    c-2.1,16.1-5.1,57.8,12.5,98.2L175.7,181.6z M165.2,177.7l9.2,2.8c-17.3-40.2-14.4-81.5-12.3-97.7c-3.7-3.5-11.2-6.7-15.3-4.1    C143.9,111.1,150.1,144.4,165.2,177.7z"/>
	</g>
	<g>
		<path class="st1" d="M145.9,87.8c-4.7-1.2-5.9-6.1-15.4-3.7c-1.2,30.2,7.8,65.1,27.7,104.1l4.6,1.3l2.3-11.7    C150.7,146.7,144.7,112.6,145.9,87.8z"/>
	</g>
	<g>
		<path d="M163.1,189.9l-5.1-1.4l-0.1-0.1C138.3,150,128.9,115,130.1,84.1l0-0.3l0.3-0.1c6.7-1.7,9.3,0.1,11.9,1.8    c1.2,0.8,2.2,1.5,3.7,1.9l0.3,0.1l0,0.3c-1.3,27.1,6.1,61.5,19.1,89.8l0,0.1L163.1,189.9z M158.4,187.9l4.1,1.1l2.2-11.2    c-13-28.3-20.4-62.7-19.2-89.7c-1.4-0.4-2.5-1.2-3.6-1.9c-2.4-1.6-4.9-3.3-11.1-1.8C129.7,115,139,149.8,158.4,187.9z"/>
	</g>
	<g>
		<path class="st1" d="M130.3,95.7c-5-0.7-6.8-7.8-15.1-2.2c-0.9,31.3,11.6,64,36.5,97.1l3.4-3.3l3.3,0.9    C142.8,158.5,132.9,127.7,130.3,95.7z"/>
	</g>
	<g>
		<path d="M151.6,191.2l-0.2-0.3c-25.1-33.4-37.4-66.1-36.6-97.4l0-0.2l0.2-0.1c5.8-3.9,8.6-1.9,11.2,0.1c1.3,0.9,2.6,1.8,4.2,2.1    l0.3,0l0,0.3c2.5,30.5,11.9,61.6,28.1,92.4l0.4,0.7l-3.9-1L151.6,191.2z M115.5,93.7c-0.8,30.9,11.4,63.3,36.2,96.4l3.3-3.2    l2.7,0.7c-15.9-30.5-25.2-61.4-27.7-91.6c-1.6-0.3-2.9-1.3-4.2-2.2C123.2,92,120.7,90.3,115.5,93.7z"/>
	</g>
	<g>
		<path class="st1" d="M115,105.5c-7.7-4.5-13.6-6.1-15.5-1.5c3.8,31.5,17.7,63.1,45.7,93.9l6.1,1.8v-9.3    C129.6,163.2,119.1,134.7,115,105.5z"/>
	</g>
	<g>
		<path d="M151.7,200.2l-6.7-2l-0.1-0.1c-26.3-28.9-41.7-60.5-45.8-94.1l0-0.1l0-0.1c0.5-1.4,1.5-2.3,2.7-2.7    c2.7-0.9,6.9,0.3,13.3,4l0.2,0.1l0,0.2c4.5,32.2,16.4,59.9,36.3,84.7l0.1,0.1V200.2z M145.5,197.6l5.5,1.6v-8.7    c-19.9-24.9-31.8-52.6-36.3-84.8c-6-3.5-10.1-4.7-12.5-3.9c-1,0.4-1.8,1.1-2.2,2.2C104,137.4,119.3,168.9,145.5,197.6z"/>
	</g>
	<g>
		<path class="st1" d="M88.2,119c7.8,31.8,24.9,60.1,52.3,84.7l1.2-6.1l3.5,0.4c-23.7-24.9-38.1-53.7-44.8-84.6    C92.5,107.1,88.4,108.9,88.2,119z"/>
	</g>
	<g>
		<path d="M140.8,204.3l-0.5-0.4c-26.9-24.1-44.6-52.7-52.4-84.8l0,0l0,0c0.1-5.2,1.2-8.2,3.4-9.3c2.2-1.1,5.3,0,9.5,3.3l0.1,0.1    l0,0.1c6.9,32.1,22,60.5,44.7,84.4l0.7,0.7l-4.1-0.5L140.8,204.3z M88.6,119c7.8,31.8,25.2,60.1,51.8,84l1.2-5.8l2.8,0.3    c-22.4-23.8-37.2-52-44.1-83.9c-3.9-3-6.8-4.1-8.7-3.2C89.7,111.3,88.7,114.2,88.6,119z"/>
	</g>
	<g>
		<path class="st1" d="M75.7,131.5c8.4,28.2,27.2,53.6,54.6,76.6l9.8,1l0.2-5.4c-18.5-15.8-38.7-41.9-50.1-75.6    C81.3,124.6,75.4,124.5,75.7,131.5z"/>
	</g>
	<g>
		<path d="M140.4,209.5l-10.3-1l-0.1-0.1c-28.2-23.6-46.6-49.5-54.7-76.7l0-0.1c-0.1-2.4,0.5-4.2,1.9-5.2c2.3-1.6,6.5-1.2,13.1,1.4    l0.2,0.1l0.1,0.2c9.9,29.2,28.1,56.7,50,75.4l0.1,0.1L140.4,209.5z M130.4,207.7l9.3,0.9l0.2-4.8c-21.9-18.8-40.1-46.3-50-75.5    c-6.2-2.4-10.2-2.9-12.3-1.4c-1.2,0.8-1.7,2.3-1.6,4.5C84.1,158.6,102.4,184.2,130.4,207.7z"/>
	</g>
	<g>
		<path class="st1" d="M79.6,143.8c-8.8-2.4-14.1-1.8-15.7,1.7c14.4,30.5,36.7,55.6,68.8,74.3l-2.7-11.5    C107.1,188.8,90.7,167.2,79.6,143.8z"/>
	</g>
	<g>
		<path d="M133.2,220.6l-0.7-0.4c-31-18.1-54.2-43.1-68.9-74.5l-0.1-0.2l0.1-0.2c1.7-3.7,7-4.4,16.1-1.9l0.2,0l0.1,0.1    c11.3,24,28.3,45.7,50.3,64.4l0.1,0.1l0,0.1L133.2,220.6z M64.3,145.5c14.6,30.9,37.4,55.7,67.9,73.6l-2.5-10.6    c-22-18.8-38.9-40.4-50.3-64.4C71,141.9,65.9,142.3,64.3,145.5z"/>
	</g>
	<g>
		<path class="st1" d="M70,158.8c-11.4-2.9-14,0.6-13.5,9.8c16,23.5,38,41.9,65.7,55.6l2.4-5.3l7.5,0.6    C106.3,203.3,84.1,182.1,70,158.8z"/>
	</g>
	<g>
		<path d="M122.4,224.6l-0.3-0.2c-27.9-13.7-50-32.5-65.8-55.7l-0.1-0.1l0-0.1c-0.3-5.2,0.5-8.1,2.5-9.8c2.1-1.7,5.8-1.9,11.5-0.4    l0.1,0l0.1,0.1c13.6,22.6,35.6,44.1,61.9,60.6l1.3,0.8l-8.7-0.7L122.4,224.6z M56.9,168.5c15.7,23,37.6,41.6,65.2,55.2l2.3-5.2    l6.3,0.5c-25.9-16.4-47.5-37.7-60.9-60c-5.4-1.4-8.8-1.3-10.7,0.3C57.3,160.8,56.7,163.6,56.9,168.5z"/>
	</g>
	<g>
		<path class="st1" d="M59.6,173.8c-8,0.1-10.1,3.4-8.3,11.5c16.5,19.8,37.3,36.3,64.2,47.5l9.9-1.8l-3.2-6.8    C95.6,211.2,75.9,193.6,59.6,173.8z"/>
	</g>
	<g>
		<path d="M115.5,233.1L115.5,233.1C90.1,222.5,69,207,51.1,185.5l-0.1-0.1c-1-4.5-0.8-7.4,0.7-9.3c1.4-1.8,3.9-2.6,7.9-2.6l0.2,0    l0.1,0.1c18.2,22.2,38.6,38.6,62.5,50.3l0.1,0.1l3.5,7.3L115.5,233.1z M51.7,185.1c17.8,21.3,38.7,36.8,63.9,47.2l9.3-1.7l-3-6.3    c-23.9-11.6-44.3-28.1-62.5-50.3c-3.7,0-6,0.8-7.2,2.4C50.9,178.2,50.7,180.9,51.7,185.1z"/>
	</g>
	<g>
		<path class="st1" d="M55.5,190.1c-3.2-0.4-6.7,1.2-9.5,3.8l4.1,10.4c20.2,17.9,43.5,31.2,70.5,39.2l-5-10.7    C92.1,222.2,72.6,207.5,55.5,190.1z"/>
	</g>
	<g>
		<path d="M121.3,244l-0.8-0.2c-26.3-7.7-50-20.9-70.7-39.3l-0.1-0.1l-4.1-10.6l0.2-0.2c3.1-2.9,6.7-4.2,9.8-3.8l0.1,0l0.1,0.1    c18.5,18.9,38.1,32.8,59.9,42.5l0.1,0.1L121.3,244z M50.4,204c20.4,18.1,43.8,31.1,69.6,38.8l-4.6-9.9    c-21.8-9.7-41.4-23.7-59.9-42.6c-2.8-0.3-6.1,0.9-8.9,3.5L50.4,204z"/>
	</g>
	<g>
		<path class="st1" d="M46.8,218.7c20.2,14.3,42.5,25,66.7,29.8l-1.2-2.9c2.9-1.7,6.8-1.3,8.7-2.4c-26.3-7.9-50.3-21-70.8-38.3    C43.3,204.2,42.9,209.5,46.8,218.7z"/>
	</g>
	<g>
		<path d="M114.1,249l-0.7-0.1C90.5,244.3,68,234.2,46.6,219l-0.1-0.1l0-0.1c-2.7-6.3-3.2-10.5-1.6-12.6c1-1.4,2.8-1.9,5.4-1.7    l0.1,0l0.1,0.1c20.8,17.6,44.6,30.5,70.7,38.3l0.8,0.2l-0.7,0.4c-0.9,0.5-2.2,0.7-3.6,0.9c-1.6,0.3-3.4,0.5-4.9,1.3L114.1,249z     M47.1,218.5c21.1,15,43.3,24.9,65.8,29.6l-1-2.5l0.3-0.2c1.7-1,3.6-1.3,5.4-1.6c0.9-0.1,1.7-0.3,2.4-0.5    c-25.8-7.9-49.3-20.7-69.9-38.1c-2.2-0.2-3.8,0.3-4.6,1.4C44,208.6,44.6,212.5,47.1,218.5z"/>
	</g>
	<g>
		<path class="st1" d="M51.5,222.4c-7.9,2.6-9.2,5.7-6.8,12.3c19,11.6,40.1,20.2,64.5,24.6l7.1-1.2l-2.9-9.6    C91.4,244.1,70.9,235,51.5,222.4z"/>
	</g>
	<g>
		<path d="M109.3,259.7L109.3,259.7C86.1,255.5,65,247.5,44.6,235l-0.1-0.1l0-0.1c-1.3-3.5-1.5-5.9-0.6-7.8c1-2.1,3.3-3.6,7.5-5    l0.2-0.1l0.1,0.1c20.4,13.2,40.6,21.8,61.8,26.1l0.2,0l3,10.2L109.3,259.7z M45.1,234.5c20.2,12.3,41.2,20.4,64.2,24.5l6.6-1.1    l-2.7-9c-21.1-4.3-41.3-12.8-61.7-26c-3.9,1.3-6.1,2.7-6.9,4.5C43.7,229,43.9,231.2,45.1,234.5z"/>
	</g>
	<g>
		<path class="st1" d="M50.9,238.6c-2.9,1.9-4.6,4.3-5.2,7.1c16.9,12.6,38.3,20.6,66,21.9l-3-8.4C87.6,255.5,68.7,248.1,50.9,238.6z    "/>
	</g>
	<g>
		<path d="M112.1,268l-0.5,0c-26.4-1.3-48-8.5-66.2-22l-0.2-0.1l0-0.2c0.6-2.9,2.4-5.3,5.4-7.3l0.2-0.1l0.2,0.1    c19.6,10.5,38.5,17.2,57.6,20.5l0.2,0L112.1,268z M46,245.5c17.9,13.2,39.2,20.3,65.1,21.7l-2.8-7.7    c-19.1-3.4-37.9-10.1-57.4-20.5C48.3,240.8,46.7,243,46,245.5z"/>
	</g>
	<g>
		<path class="st1" d="M56.6,253.4l-5.2,6.2c-2.9,1.7-2.7,3.7,0.7,5.9c13.6,10,32.1,13.8,56.5,10.3l7.6-3.9l-4.6-4.4    C90.6,266.7,72.2,261.5,56.6,253.4z"/>
	</g>
	<g>
		<path d="M91.9,277.5c-16.1,0-29.5-3.9-40.1-11.6c-1.9-1.3-2.9-2.5-2.9-3.7c0-1,0.7-2,2.2-2.8l5.4-6.4l0.3,0.1    c16.4,8.5,34.9,13.3,54.9,14.1l0.1,0l0.1,0.1l4.9,4.7l-8.2,4.1C102.8,277.1,97.2,277.5,91.9,277.5z M56.7,253.9l-5.1,6.1    c-1.2,0.7-1.8,1.5-1.9,2.2c0,0.9,0.8,1.9,2.5,3.1c13.9,10.2,32.8,13.6,56.2,10.2l7.1-3.6l-4.1-3.9    C91.5,267.1,73.1,262.3,56.7,253.9z"/>
	</g>
	<g>
		<path class="st1" d="M57.8,269.3c-4.1,5.3-5.4,10.1,0,11.8c15.4,6.9,32.6,8.7,51.6,5.2l3.4-2.7l-4.1-7.8    C89.8,279.3,73.2,276.1,57.8,269.3z"/>
	</g>
	<g>
		<path d="M91.2,288.3c-12,0-23.2-2.3-33.6-6.9c-1.9-0.6-3.1-1.7-3.6-3.1c-0.7-2.2,0.5-5.4,3.5-9.3l0.2-0.2l0.3,0.1    c16.9,7.6,33.5,9.7,50.7,6.6l0.3,0l4.3,8.2l-3.8,3C103.2,287.8,97.1,288.3,91.2,288.3z M57.9,269.7c-2.7,3.6-3.8,6.5-3.2,8.4    c0.4,1.2,1.4,2.1,3.1,2.7c15.3,6.9,32.6,8.6,51.4,5.2l3.1-2.5l-3.8-7.3C91.4,279.3,74.8,277.2,57.9,269.7z"/>
	</g>
	<g>
		<path class="st1" d="M66.4,284.4c-3.6,2.1-5.9,4.5-6.8,7.1c15.8,7.8,33.4,9.5,52.8,4.7l-4.1-9.8C94.2,288.4,79.1,288,66.4,284.4z"/>
	</g>
	<g>
		<path d="M91.6,299.3c-11.3,0-22.1-2.5-32.1-7.4l-0.3-0.1l0.1-0.3c0.9-2.7,3.3-5.1,6.9-7.3l0.1-0.1l0.1,0c12,3.3,26.9,4,41.8,2    l0.3,0l4.4,10.4l-0.4,0.1C105.4,298.4,98.4,299.3,91.6,299.3z M60.1,291.3c15.7,7.6,33.2,9.2,51.9,4.6l-3.9-9.1    c-14.9,2-29.7,1.2-41.7-2C63.1,286.8,61,289,60.1,291.3z"/>
	</g>
	<g>
		<path class="st1" d="M73.3,296.6c-2.8,3-4.5,6.3-4.5,8.5c13.3,5,27.2,5.4,41.7-0.9l4.1-6.5l-2-2.3    C104,299.3,90.5,298.8,73.3,296.6z"/>
	</g>
	<g>
		<path d="M88.8,309.2c-6.6,0-13.3-1.3-20.1-3.8l-0.2-0.1v-0.3c0-2.4,1.8-5.8,4.6-8.7l0.1-0.1l0.2,0c14.8,1.9,29.8,3,39.2-1.1    l0.2-0.1l2.3,2.7l-4.3,6.8l-0.1,0C103.4,307.7,96.2,309.2,88.8,309.2z M69.2,304.9c14.1,5.2,27.6,4.9,41.1-0.9l3.9-6.1l-1.6-1.9    c-9.5,4.1-24.4,2.9-39.2,1.1C71,299.6,69.3,302.7,69.2,304.9z"/>
	</g>
	<g>
		<path class="st1" d="M82,308.4c-3.5,4.4-3.7,8-0.8,9.2c12.3,1.7,23.4,0.9,33.6-4.2l3-3.9l-7.1-5.3C101.4,308,91.7,308.6,82,308.4z    "/>
	</g>
	<g>
		<path d="M92.2,318.8c-3.5,0-7.1-0.3-11-0.8c-1.2-0.5-1.9-1.3-2.2-2.3c-0.5-1.9,0.5-4.5,2.8-7.4l0.1-0.1l0.2,0    c9.2,0.1,19-0.2,28.6-4.2l0.2-0.1l0.2,0.1l7.4,5.5l-3.4,4.3C108.2,317.1,100.7,318.8,92.2,318.8z M82.1,308.8    c-2.1,2.7-2.9,5-2.5,6.7c0.2,0.8,0.8,1.5,1.7,1.8c13.2,1.8,23.8,0.5,33.2-4.2l2.7-3.6l-6.6-4.9C101.1,308.5,91.3,308.9,82.1,308.8    z"/>
	</g>
	<g>
		<path class="st1" d="M88.7,318.3c-2.3,3.5-2.4,7.2-0.7,9.8c11.1-0.3,21.3-3.4,30.4-9.3l-4.4-5.1C105.9,316.8,97.3,318,88.7,318.3z    "/>
	</g>
	<g>
		<path d="M87.8,328.5l-0.1-0.2c-1.9-2.9-1.6-6.8,0.7-10.2l0.1-0.2l0.2,0c10-0.4,18.1-1.8,25.3-4.6l0.2-0.1l4.8,5.6l-0.3,0.2    c-9.2,5.9-19.5,9.1-30.6,9.4L87.8,328.5z M88.9,318.7c-2,3.1-2.3,6.5-0.7,9.1c10.8-0.3,20.8-3.4,29.7-9l-3.9-4.6    C106.8,316.8,98.8,318.3,88.9,318.7z"/>
	</g>
	<g>
		<path class="st1" d="M96.5,327.3l-1.3,8.8c9.3-0.8,18.6-4.1,27.6-10.1l-3.3-2.1l1.7-4.1l-2.3-1.2    C111.5,322.7,103.8,325.3,96.5,327.3z"/>
	</g>
	<g>
		<path d="M94.8,336.5l1.4-9.5l0.2-0.1c6.3-1.8,14.6-4.4,22.3-8.6l0.2-0.1l2.7,1.4l-1.7,4.1l3.5,2.2l-0.5,0.3    c-8.7,5.9-18,9.3-27.7,10.1L94.8,336.5z M96.8,327.6l-1.2,8.1c9.2-0.9,18.2-4.1,26.5-9.7l-3.1-2l1.6-4l-1.8-1    C111.2,323.3,103.1,325.8,96.8,327.6z"/>
	</g>
	<g>
		<path class="st1" d="M104.5,334.5l-0.5,6.6c7.5-1.5,14.8-3.7,21.8-6.8l-2.7-0.6l2.6-6.5l-2.9-1.2    C118,330.2,110.4,331.5,104.5,334.5z"/>
	</g>
	<g>
		<path d="M103.6,341.5l0.6-7.3l0.2-0.1c2.2-1.1,4.6-2,7-2.8c4.1-1.5,8.3-3,11.3-5.6l0.2-0.1l3.4,1.4l-2.5,6.4l3.4,0.7l-1,0.4    c-6.7,3-13.9,5.2-21.9,6.8L103.6,341.5z M104.8,334.7l-0.5,5.9c7.4-1.5,14-3.6,20.3-6.2l-2-0.5l2.6-6.5l-2.3-1    c-3.1,2.6-7.3,4.1-11.3,5.6C109.3,332.8,106.9,333.7,104.8,334.7z"/>
	</g>
	<g>
		<path class="st3" d="M202.9,19.8c-9.3,31-17.9,157.8-9.6,225l3.5-5l5,12.7C215,163.7,217.7,58,202.9,19.8z"/>
	</g>
	<g>
		<path d="M201.9,253.9l-5.3-13.3l-3.6,5.2l-0.1-0.9c-8.2-66.7,0.4-194.4,9.6-225.1l0.3-1l0.4,1c15.7,40.6,11.2,150.3-1.1,232.8    L201.9,253.9z M196.8,239l4.8,12.1C213.6,169.5,218.1,62,203,21c-9.1,32.3-17.3,156.7-9.4,222.9L196.8,239z"/>
	</g>
	<g>
		<polygon class="st5" points="195.9,62.4 195.1,70 203.3,75.8 211.6,69 211,62 203.7,68.9   "/>
	</g>
	<g>
		<path d="M203.3,76.2l-8.6-6.1l0.9-8.5l8.1,6.8l7.6-7.2l0.6,7.9L203.3,76.2z M195.5,69.8l7.8,5.5l8-6.5l-0.5-6l-7,6.6l-7.6-6.3    L195.5,69.8z"/>
	</g>
	<g>
		<path d="M196.4,374.2c-15.3,0-30.6-4.8-42.8-14.1l-0.1-0.1l-0.3-7l10-5.1l0.2,0.1c20.9,11.5,40.6,12.2,58.7,2.1l0.2-0.1l10.2,7.5    v7.1l-0.2,0.1C221.3,371.1,208.8,374.2,196.4,374.2z M154.1,359.7c21.8,16.6,53.7,18.5,77.6,4.5v-6.3l-9.5-7    c-18.2,10.1-38.1,9.4-59-2.1l-9.3,4.7L154.1,359.7z"/>
	</g>
	<g>
		<polygon class="st2" points="155.4,337.3 157.8,340.5 155.2,344.9   "/>
	</g>
	<g>
		<path d="M154.8,346.3l0.3-10.1l3.1,4.3L154.8,346.3z M155.8,338.3l-0.2,5.2l1.8-3L155.8,338.3z"/>
	</g>
	<g>
		<polygon class="st2" points="157.8,350.8 161.1,344.4 165,347.5   "/>
	</g>
	<g>
		<path d="M157,351.6l4.1-7.8l4.7,3.7L157,351.6z M161.2,344.9l-2.7,5.1l5.8-2.7L161.2,344.9z"/>
	</g>
	<g>
		<polygon class="st2" points="171,345.3 174.3,339.6 177.4,343.5   "/>
	</g>
	<g>
		<path d="M170.2,345.9l4.1-6.9l3.8,4.7L170.2,345.9z M174.4,340.2l-2.6,4.5l5.1-1.4L174.4,340.2z"/>
	</g>
	<g>
		<polygon class="st2" points="184.7,341.7 187,337.6 189.6,341.4   "/>
	</g>
	<g>
		<path d="M184,342l2.9-5.1l3.3,4.7L184,342z M187,338.3l-1.7,2.9l3.6-0.2L187,338.3z"/>
	</g>
	<g>
		<polygon class="st2" points="200.2,341.9 203,338.9 206,342.9   "/>
	</g>
	<g>
		<path d="M206.8,343.5l-7.4-1.3l3.6-3.8L206.8,343.5z M200.9,341.7l4.3,0.8l-2.2-2.9L200.9,341.7z"/>
	</g>
	<g>
		<polygon class="st2" points="214.5,345.4 218,342.6 223,349.7   "/>
	</g>
	<g>
		<path d="M224.1,350.6l-10.2-5.2l4.2-3.4L224.1,350.6z M215.2,345.3l6.7,3.4l-3.9-5.6L215.2,345.3z"/>
	</g>
	<g>
		<polygon class="st2" points="230.7,351 228.4,353 231.1,355.7   "/>
	</g>
	<g>
		<path d="M231.5,356.7l-3.7-3.7l3.2-2.8L231.5,356.7z M228.9,353l1.8,1.8l-0.3-3.1L228.9,353z"/>
	</g>
	<g>
		<polygon class="st2" points="172.9,329.9 174.3,331.7 176.3,329   "/>
	</g>
	<g>
		<path d="M174.3,332.3l-2.1-2.6l4.9-1.3L174.3,332.3z M173.5,330.1l0.8,1l1.1-1.5L173.5,330.1z"/>
	</g>
	<g>
		<polygon class="st2" points="184.7,326.8 187.6,329.8 190.2,326.7   "/>
	</g>
	<g>
		<path d="M187.7,330.3l-3.8-3.8l7.2-0.2L187.7,330.3z M185.5,327.1l2.1,2.1l1.8-2.2L185.5,327.1z"/>
	</g>
	<g>
		<polygon class="st2" points="199.7,327.6 202.8,331.6 206.9,328.6   "/>
	</g>
	<g>
		<path d="M202.7,332.1l-3.9-5l9,1.3L202.7,332.1z M200.5,328.1l2.4,3l3.1-2.2L200.5,328.1z"/>
	</g>
	<g>
		<polygon class="st2" points="216.9,332.6 218.9,335.3 220.4,334.4   "/>
	</g>
	<g>
		<path d="M218.9,335.8l-3.2-4.2l5.5,2.8L218.9,335.8z M218.1,333.7l0.9,1.2l0.6-0.4L218.1,333.7z"/>
	</g>
	<g>
		<polygon class="st2" points="160.7,335.7 161.3,336.2 161.7,335.3   "/>
	</g>
	<g>
		<polygon points="161.4,336.8 160,335.6 162.4,334.7   "/>
	</g>
	<g>
		<path d="M231.8,357.9c-22.6-19.5-48.9-20.9-78.1-4.3l-0.4-0.6c29.5-16.8,56.1-15.3,79,4.4L231.8,357.9z"/>
	</g>
	<g>
		<polygon points="155.1,350.4 154.5,350 163.4,334.1 164,334.5   "/>
	</g>
	<g>
		<polygon points="167.4,347.2 158.6,336.6 159.2,336.1 167.3,345.9 178.3,328 178.9,328.4   "/>
	</g>
	<g>
		<polygon points="179.2,342.6 170,331.2 170.6,330.7 179.5,341.8 180.7,341.5 191.8,327.2 192.3,327.7 181.1,342.1   "/>
	</g>
	<g>
		<rect x="187.7" y="325.1" transform="matrix(0.7979 -0.6028 0.6028 0.7979 -163.3482 180.9129)" width="0.7" height="17.8"/>
	</g>
	<g>
		<polygon points="196.7,341.5 196.2,341 211,328.5 211.4,329   "/>
	</g>
	<g>
		<polygon points="208.6,343.9 196.2,327.9 196.7,327.5 209.1,343.5   "/>
	</g>
	<g>
		<polygon points="211.2,345 210.8,344.4 223.6,334.9 224.1,335.5   "/>
	</g>
	<g>
		<polygon points="226.5,350.8 211.8,329.3 212.4,328.9 226.7,349.8 230.9,346.9 231.3,347.5   "/>
	</g>
	<g>
		<path d="M232.4,342.3c-22.7-20.3-49.1-21.8-78.2-4.5l-0.4-0.6c29.5-17.5,56.1-15.9,79.1,4.6L232.4,342.3z"/>
	</g>
	<g>
		<polygon class="st2" points="164,337.8 167.1,342.3 170.6,335.8 167.7,332.4   "/>
	</g>
	<g>
		<path d="M167.1,343l-3.6-5.2l4.2-6l3.3,4L167.1,343z M164.4,337.8l2.6,3.8l3.1-5.7l-2.4-2.9L164.4,337.8z"/>
	</g>
	<g>
		<polygon class="st2" points="177.6,334.8 181.3,329.6 184,333.4 180.8,338.7   "/>
	</g>
	<g>
		<path d="M180.8,339.3l-3.7-4.5l4.2-5.8l3.1,4.3L180.8,339.3z M178,334.8l2.7,3.3l2.8-4.7l-2.3-3.2L178,334.8z"/>
	</g>
	<g>
		<polygon class="st2" points="191.4,332.9 194.5,328.5 198.1,333.6 194.9,338.2   "/>
	</g>
	<g>
		<path d="M194.9,338.8l-3.9-5.9l3.5-5l4.1,5.8L194.9,338.8z M191.8,332.9l3.1,4.7l2.8-3.9l-3.2-4.5L191.8,332.9z"/>
	</g>
	<g>
		<polygon class="st2" points="206.7,335.8 210.3,332 213.8,338.6 210.8,341.7   "/>
	</g>
	<g>
		<path d="M210.8,342.2l-4.6-6.4l4.2-4.5l3.9,7.3L210.8,342.2z M207.1,335.9l3.7,5.2l2.5-2.6l-3.1-5.9L207.1,335.9z"/>
	</g>
	<g>
		<polygon class="st2" points="223,339.8 225.9,345.8 229.6,343.1 227.6,339.5   "/>
	</g>
	<g>
		<path d="M225.8,346.3l-3.4-6.8l5.4-0.5l2.2,4.1L225.8,346.3z M223.5,340.2l2.5,5.1l3-2.3l-1.7-3.1L223.5,340.2z"/>
	</g>
	<g>
		<path class="st1" d="M184.6,380.3c-7,3.2-8.7,8.2-7.9,12.8c1,1.6,2.3,2.2,3.5,2.9c-2.5-6.4-0.7-10.8,5.4-15.1    C185.5,380.5,185,380.5,184.6,380.3z"/>
	</g>
	<g>
		<path d="M181,396.9l-0.9-0.6c-0.2-0.1-0.4-0.2-0.6-0.3c-1-0.6-2.1-1.3-3-2.7l0-0.1c-0.6-3.3-0.4-9.4,8.1-13.2l0.2-0.1l0.2,0.1    c0.1,0.1,0.2,0.1,0.3,0.1c0.3,0.1,0.7,0.2,0.9,0.7l0.1,0.3l-0.2,0.2c-6.2,4.4-7.7,8.6-5.3,14.7L181,396.9z M177.1,393    c0.7,1.1,1.6,1.7,2.5,2.2c-2-5.8-0.3-10.1,5.6-14.3c-0.1,0-0.1-0.1-0.2-0.1c-0.1,0-0.2-0.1-0.3-0.1    C178.8,383.3,176.2,387.7,177.1,393z"/>
	</g>
	<g>
		<path class="st1" d="M186,380.9c-6,4.2-8.1,8.9-5.8,14.2c0,0.9,1,1.3,2.3,1.5c-2.3-7.9-0.7-12.8,4.6-14.9L186,380.9z"/>
	</g>
	<g>
		<path d="M183,397l-0.5-0.1c-0.6-0.1-2.5-0.3-2.6-1.7c-2.3-5.3-0.3-10.2,5.9-14.5l0.2-0.1l2,1.2l-0.7,0.3c-5.2,2-6.6,6.7-4.4,14.5    L183,397z M186,381.3c-5.9,4.1-7.6,8.6-5.4,13.6l0,0.1c0,0.3,0.2,0.8,1.5,1.1c-2-7.4-0.5-12.3,4.3-14.5L186,381.3z"/>
	</g>
	<g>
		<path class="st1" d="M186.9,381.8c-4.8,2.1-6.1,6.9-4.3,14.1c0.7,0.5,1.1,0.6,1.7,0.5c-2.4-5-1.6-9.8,3.6-14.2L186.9,381.8z"/>
	</g>
	<g>
		<path d="M183.8,396.9c-0.5,0-1-0.2-1.5-0.6l-0.1-0.1l0-0.1c-1.8-7.6-0.3-12.4,4.5-14.5l0.1-0.1l1.7,0.6l-0.5,0.4    c-4.8,4.1-5.9,8.6-3.5,13.8l0.2,0.4l-0.4,0.1C184.2,396.8,184,396.9,183.8,396.9z M182.9,395.8c0.4,0.3,0.6,0.4,0.9,0.4    c-2.2-5.1-1.1-9.7,3.4-13.8l-0.3-0.1C182.5,384.2,181.2,388.6,182.9,395.8z"/>
	</g>
	<g>
		<path class="st1" d="M185.1,395.9c3.9,1-0.1,9.8,1,14.3c1,0.5,2.1,0.5,3.1-0.1c-3.2-2.6,0.9-16.3-2.2-15.4    C186.4,395.1,185.4,395,185.1,395.9z"/>
	</g>
	<g>
		<path d="M187.6,410.9c-0.5,0-1.1-0.1-1.6-0.4l-0.1-0.1l0-0.2c-0.4-1.9-0.1-4.4,0.3-6.8c0.5-3.5,1-6.7-1-7.3l-0.4-0.1l0.1-0.4    c0.3-0.8,0.9-1,1.5-1.1c0.2-0.1,0.5-0.1,0.6-0.2l0.1,0c0.5-0.1,0.8,0,1,0.2c0.9,0.7,0.8,2.8,0.5,6.3c-0.2,3.5-0.5,7.8,1,9l0.4,0.3    l-0.4,0.3C188.8,410.7,188.2,410.9,187.6,410.9z M186.4,409.9c0.7,0.3,1.5,0.4,2.2,0c-1.4-1.7-1.1-5.7-0.9-9.2    c0.2-2.4,0.4-5.2-0.3-5.7c-0.1,0-0.1-0.1-0.3,0c-0.2,0.1-0.5,0.2-0.8,0.3c-0.4,0.1-0.6,0.2-0.8,0.4c2.2,1,1.6,4.3,1.1,7.9    C186.4,405.9,186.1,408.2,186.4,409.9z"/>
	</g>
	<g>
		<path class="st1" d="M185.6,393.5c2.5-1.8,4.3-0.5,5.5,3.1c-1.4,4.8-1.5,9.6,0.3,12.8l-2.1,0.8    C185.8,407.3,191.5,393.8,185.6,393.5z"/>
	</g>
	<g>
		<path d="M189.2,410.5l-0.2-0.1c-1.7-1.4-1.4-4.7-1.2-8.2c0.2-3.1,0.5-6.2-0.7-7.6c-0.4-0.4-0.9-0.7-1.6-0.7l-1-0.1l0.8-0.6    c1.1-0.8,2.1-1,3.1-0.8c1.2,0.4,2.2,1.7,3,4l0,0.1l0,0.1c-1.4,5.1-1.3,9.6,0.2,12.6l0.2,0.4L189.2,410.5z M186.6,393.3    c0.4,0.2,0.8,0.4,1.1,0.8c1.4,1.6,1.1,4.9,0.9,8.1c-0.2,3.1-0.5,6.2,0.8,7.5l1.5-0.5c-1.5-3.1-1.5-7.6-0.1-12.6    c-0.7-2-1.5-3.1-2.5-3.4C187.8,393,187.2,393,186.6,393.3z"/>
	</g>
	<g>
		<path class="st1" d="M184,394.7c-2.3-4.6-0.6-9,5.3-13.1c4.1,0.2,6.9,3.3,7.9,10.6c-0.1,0.9-0.5,1.7-1.1,2.4    c-0.3,4.9-1.1,13.1,1.4,13.8l-1.8,1.3l-4.1-0.4c-1.4-4.1-1.5-8.5-0.6-13.1C189.6,391.7,187.6,391.9,184,394.7z"/>
	</g>
	<g>
		<path d="M195.8,410.2l-4.5-0.4l-0.1-0.2c-1.4-4.1-1.6-8.6-0.6-13.2c-0.6-1.9-1.3-3-2.1-3.2c-0.9-0.3-2.3,0.3-4.3,1.9l-0.3,0.3    l-0.2-0.4c-2.4-4.8-0.6-9.3,5.4-13.5l0.1-0.1l0.1,0c4.6,0.3,7.3,3.9,8.2,10.9l0,0l0,0c-0.1,0.9-0.5,1.8-1.1,2.5l-0.1,0.9    c-0.3,4.4-0.8,11.8,1.3,12.4l0.7,0.2L195.8,410.2z M191.8,409.1l3.8,0.3l1.2-0.9c-1.8-1.4-1.6-6.7-1.2-12.8l0.1-1.2l0.1-0.1    c0.6-0.7,0.9-1.4,1-2.2c-0.9-6.6-3.3-9.9-7.4-10.2c-5.5,3.9-7.2,7.9-5.2,12.2c2.1-1.6,3.4-2.1,4.6-1.7c1.1,0.4,2,1.6,2.6,3.8    l0,0.1l0,0.1C190.4,400.9,190.6,405.1,191.8,409.1z"/>
	</g>
	<g>
		<path d="M194.7,389.6c-1.1-2.9-2.5-4.5-4-4.8c-1.4-0.3-3,0.4-4.9,2.2l-0.5-0.5c2-2,3.9-2.8,5.5-2.4c1.8,0.4,3.3,2.2,4.5,5.3    L194.7,389.6z"/>
	</g>
	<g>
		<path d="M194.8,410.1c-2.2-3.4-1.7-7.5-1.2-11.3c0.3-2.2,0.6-4.3,0.4-6.2c-1.3-3.2-3.3-5.2-5.3-5.2c0,0-0.1,0-0.1,0    c-1.6,0.1-2.9,1.4-3.7,3.7l-0.7-0.2c0.9-2.6,2.5-4.1,4.4-4.2c0,0,0.1,0,0.1,0c2.3,0,4.5,2.1,6,5.7l0,0.1c0.2,2-0.1,4.2-0.4,6.4    c-0.5,3.8-1,7.6,1.1,10.9L194.8,410.1z"/>
	</g>
	<g>
		<path d="M192.1,409.5c-1.6-2.3-1-5.9-0.3-9.4c0.6-3.2,1.2-6.1-0.2-7.5c-1.4-1.6-2.6-2.3-3.7-2.3c-1,0.1-2,0.9-2.9,2.3l-0.6-0.4    c1.1-1.7,2.2-2.6,3.5-2.7c1.4-0.1,2.8,0.7,4.3,2.5c1.6,1.6,1,4.8,0.4,8.2c-0.6,3.3-1.3,6.8,0.2,8.8L192.1,409.5z"/>
	</g>
	<g>
		<polygon points="184.4,396.1 184,395.5 186.3,393.7 186.7,394.2   "/>
	</g>
	<g>
		<path class="st1" d="M192.5,381.4c2.9-4,7.4-2.2,9.6,5.9c0,6.2-2.1,11.4-6.1,15.7c-0.6-2.7-0.3-5.6-0.4-8.4l1.5-2.3    C196.9,388.3,195.4,384.6,192.5,381.4z"/>
	</g>
	<g>
		<path d="M195.8,403.8l-0.2-0.7c-0.4-1.8-0.4-3.8-0.4-5.7c0-0.9,0-1.9,0-2.8l0-0.1l1.5-2.3c-0.2-3.9-1.8-7.4-4.5-10.5l-0.2-0.2    l0.2-0.2c1.2-1.7,2.8-2.4,4.3-2.1c2.5,0.5,4.6,3.4,5.9,8.1l0,0.1c0,6.1-2.1,11.4-6.2,16L195.8,403.8z M196,394.7    c0,0.9,0,1.8,0,2.7c0,1.6,0,3.2,0.2,4.8c3.6-4.3,5.5-9.3,5.5-14.9c-1.2-4.3-3.2-7.1-5.3-7.5c-1.2-0.2-2.4,0.3-3.5,1.6    c2.8,3.2,4.3,6.9,4.5,10.8l0,0.1L196,394.7z"/>
	</g>
	<g>
		<path d="M197.1,398.4l-0.6-0.4c4.8-6.4,3.6-12.2,1.7-14.4c-0.8-0.9-1.8-1.3-2.8-1.1c1.3,0.6,2.2,1.4,2.8,2.5    c1.1,2.3,0.7,5.6-1.3,10.3l-0.7-0.3c1.8-4.4,2.3-7.7,1.3-9.7c-0.6-1.2-1.6-2-3.2-2.5l-0.8-0.2l0.7-0.4c1.5-0.9,3.2-0.6,4.5,0.9    C201.3,386.1,201.6,392.4,197.1,398.4z"/>
	</g>
	<g>
		<path d="M186.4,517.6c-0.7,0-1.4-0.1-2.2-0.2l0.1-0.7c1.2,0.2,5.4,0.6,7.7-1.9l0.5,0.5C191.3,516.8,189,517.6,186.4,517.6z"/>
	</g>
	<g>
		<path d="M190.2,515c-4.8,0-8.6-2.9-9-6.8l0.7-0.1c0.4,3.6,3.9,6.2,8.3,6.2c0.1,0,0.2,0,0.3,0l0,0.7C190.5,515,190.3,515,190.2,515    z"/>
	</g>
	<g>
		<path d="M188.4,512.9c-5.6-2.5-6.2-8.7-4.4-13.4l0.7,0.3c-1.7,4.4-1.1,10.2,4,12.5L188.4,512.9z"/>
	</g>
	<g>
		<path d="M191.8,520.3l-0.4-0.6c2.9-1.9,4.2-4.1,4-6.7l0.7-0.1C196.4,515.8,195,518.2,191.8,520.3z"/>
	</g>
	<g>
		<path d="M198.1,516.5c-0.1-4.6,1.3-11.2,4.6-14.7l0.5,0.5c-3,3.2-4.5,9.6-4.4,14.2L198.1,516.5z"/>
	</g>
	<g>
		<path d="M189,505.5l-0.7-0.1c0.4-2.2,2-3.9,3.7-5.8c2.8-3.1,5.7-6.2,3.4-12.1l0.7-0.3c2.5,6.3-0.7,9.8-3.5,12.8    C190.9,501.8,189.4,503.5,189,505.5z"/>
	</g>
	<g>
		<path d="M187.9,507.4c-1.6-4,0.5-7.1,2.6-10.2c2.3-3.4,4.6-6.8,2.3-11.6l0.6-0.3c2.4,5.1,0,8.8-2.4,12.3c-2,3-4,5.9-2.5,9.5    L187.9,507.4z"/>
	</g>
	<g>
		<path d="M188.2,511.7c-5.7-6.5-2-13,0.9-18.2c1.7-3,3.1-5.5,2.7-7.6l0.7-0.1c0.4,2.4-1.1,5-2.8,8.1c-3,5.3-6.3,11.3-1,17.4    L188.2,511.7z"/>
	</g>
	<g>
		<rect x="232.6" y="340.9" transform="matrix(0.1598 -0.9872 0.9872 0.1598 -141.7601 517.2175)" width="0.7" height="1.9"/>
	</g>
	<g>
		<polygon points="155.2,262.5 155.1,262.1 155.8,262 155.9,262.4   "/>
	</g>
	<g>
		<polygon points="193.3,246.1 192.6,245.9 192.9,244.5 193.6,244.7   "/>
	</g>
	<g>
		<path class="st3" d="M228.9,447.6l10.5,0.3l0.3-23.2c-1.9-6.7-7.7-6.8-10-0.3L228.9,447.6z M220.4,476.1l7.8,0.4l0.8-21l10.5,0.4    l-0.3,20.5h8.2l0.3-48.6c0.6-19.8-27.3-20.2-26.6-0.3L220.4,476.1z"/>
	</g>
	<g>
		<path d="M228.6,476.9l-8.5-0.4l0-0.3l0.7-48.6c-0.2-5.9,2.1-10.6,6.5-13.2c4.3-2.5,9.8-2.5,14.2,0c4.5,2.7,6.9,7.4,6.7,13.5    l-0.3,48.9h-8.9l0-0.4l0.3-20.1l-9.8-0.4L228.6,476.9z M220.8,475.8l7.1,0.4l0.8-21l11.2,0.4l-0.3,20.4h7.5l0.3-48.2    c0.2-5.8-2.1-10.3-6.4-12.8c-4.1-2.4-9.4-2.4-13.4,0c-4.1,2.4-6.3,6.9-6.1,12.6L220.8,475.8z M239.8,448.3l-11.2-0.3l0.9-23.7    c1.1-3.2,3.2-5.2,5.5-5.1c2.3,0.1,4.2,2.1,5.2,5.4l0,0.1l0,0.1L239.8,448.3z M229.3,447.3l9.8,0.3l0.3-22.8    c-0.9-3-2.5-4.7-4.5-4.8c0,0-0.1,0-0.1,0c-1.9,0-3.7,1.7-4.7,4.5L229.3,447.3z"/>
	</g>
</g>
</svg>