<?xml version="1.0" encoding="UTF-8" standalone="no"?>
<svg xmlns:dc="http://purl.org/dc/elements/1.1/" xmlns:cc="http://creativecommons.org/ns#" xmlns:rdf="http://www.w3.org/1999/02/22-rdf-syntax-ns#" xmlns:svg="http://www.w3.org/2000/svg" xmlns="http://www.w3.org/2000/svg" xmlns:sodipodi="http://sodipodi.sourceforge.net/DTD/sodipodi-0.dtd" xmlns:inkscape="http://www.inkscape.org/namespaces/inkscape" version="1.1" x="0px" y="0px" width="1143px" height="268px" viewBox="0 0 1143 268" style="enable-background:new 0 0 1143 268;" xml:space="preserve" id="svg74" sodipodi:docname="logocmr_normal.svg" inkscape:version="1.0.1 (1.0.1+r75)"><metadata id="metadata78"><rdf:RDF><cc:Work rdf:about=""><dc:format>image/svg+xml</dc:format><dc:type rdf:resource="http://purl.org/dc/dcmitype/StillImage"/><dc:title/></cc:Work></rdf:RDF></metadata><sodipodi:namedview pagecolor="#ffffff" bordercolor="#666666" borderopacity="1" objecttolerance="10" gridtolerance="10" guidetolerance="10" inkscape:pageopacity="0" inkscape:pageshadow="2" inkscape:window-width="1299" inkscape:window-height="713" id="namedview76" showgrid="false" inkscape:zoom="0.9903762" inkscape:cx="571.5" inkscape:cy="134" inkscape:window-x="67" inkscape:window-y="27" inkscape:window-maximized="1" inkscape:current-layer="svg74"/>
<style type="text/css" id="style2">
	.st0{fill:#2B2F35;}
	.st1{fill:#D82B3F;}
	.st2{fill:#F68B1F;}
	.st3{fill:#FFCE07;}
</style>
<defs id="defs4">
</defs>
<g id="g60">
	<path class="st0" d="M719.8,96.6L719.8,96.6c0-9.3,6.9-16.8,16.7-16.8c6,0,9.6,2.1,12.6,5l-3.6,4.2c-2.6-2.4-5.4-4-9-4   c-6.2,0-10.7,5.1-10.7,11.4v0.1c0,6.3,4.5,11.5,10.7,11.5c4,0,6.5-1.6,9.3-4.2l3.6,3.7c-3.4,3.5-7.1,5.7-13.1,5.7   C726.8,113.3,719.8,105.9,719.8,96.6z" id="path6"/>
	<path class="st0" d="M754.1,80.4h24v5.1h-18.3v8.4H776v5.1h-16.2v8.7h18.5v5.1h-24.2V80.4z" id="path8"/>
	<path class="st0" d="M783.9,80.4h5.3l17.3,22.3V80.4h5.6v32.3h-4.8l-17.8-23v23h-5.6V80.4z" id="path10"/>
	<path class="st0" d="M827.2,85.6h-10.2v-5.3h26.2v5.3h-10.2v27.1h-5.7V85.6z" id="path12"/>
	<path class="st0" d="M848,80.4h14.4c4.1,0,7.2,1.2,9.3,3.2c1.7,1.8,2.7,4.2,2.7,7v0.1c0,5.3-3.2,8.5-7.7,9.8l8.7,12.2h-6.7   l-7.9-11.3h-7.1v11.3H848V80.4z M862,96.4c4.1,0,6.6-2.1,6.6-5.4v-0.1c0-3.5-2.5-5.4-6.7-5.4h-8.3v10.8H862z" id="path14"/>
	<path class="st0" d="M878.8,96.6L878.8,96.6c0-9.2,7-16.8,16.9-16.8s16.9,7.5,16.9,16.6v0.1c0,9.1-7,16.7-16.9,16.7   C885.7,113.3,878.8,105.7,878.8,96.6z M906.6,96.6L906.6,96.6c0-6.4-4.6-11.6-11-11.6c-6.4,0-10.9,5.1-10.9,11.4v0.1   c0,6.3,4.6,11.5,11,11.5C902.1,108,906.6,102.9,906.6,96.6z" id="path16"/>
	<path class="st0" d="M931,80.4h12c10.2,0,17.2,7,17.2,16.1v0.1c0,9.1-7,16.2-17.2,16.2h-12V80.4z M943,107.5   c6.8,0,11.2-4.6,11.2-10.9v-0.1c0-6.3-4.4-11-11.2-11h-6.4v22H943z" id="path18"/>
	<path class="st0" d="M965.9,80.4h24v5.1h-18.3v8.4h16.2v5.1h-16.2v8.7h18.5v5.1h-24.2V80.4z" id="path20"/>
	<path class="st0" d="M721.2,123.9h6l9.8,15.3l9.8-15.3h6v32.3h-5.7V133l-10.2,15.2h-0.2l-10.1-15.1v23.1h-5.6V123.9z" id="path22"/>
	<path class="st0" d="M758.7,140.1L758.7,140.1c0-9.2,7-16.8,16.9-16.8s16.9,7.5,16.9,16.6v0.1c0,9.1-7,16.7-16.9,16.7   C765.6,156.8,758.7,149.2,758.7,140.1z M786.5,140.1L786.5,140.1c0-6.4-4.6-11.6-11-11.6c-6.4,0-10.9,5.1-10.9,11.4v0.1   c0,6.3,4.6,11.5,11,11.5C782,151.5,786.5,146.4,786.5,140.1z" id="path24"/>
	<path class="st0" d="M798.2,123.9h5.3l17.3,22.3v-22.3h5.6v32.3h-4.8l-17.8-23v23h-5.6V123.9z" id="path26"/>
	<path class="st0" d="M833.8,123.9h5.7v32.3h-5.7V123.9z" id="path28"/>
	<path class="st0" d="M854.9,129.2h-10.2v-5.3h26.2v5.3h-10.2v27.1h-5.7V129.2z" id="path30"/>
	<path class="st0" d="M872.6,140.1L872.6,140.1c0-9.2,7-16.8,16.9-16.8c9.9,0,16.9,7.5,16.9,16.6v0.1c0,9.1-7,16.7-16.9,16.7   C879.5,156.8,872.6,149.2,872.6,140.1z M900.4,140.1L900.4,140.1c0-6.4-4.6-11.6-11-11.6c-6.4,0-10.9,5.1-10.9,11.4v0.1   c0,6.3,4.6,11.5,11,11.5C895.9,151.5,900.4,146.4,900.4,140.1z" id="path32"/>
	<path class="st0" d="M912.1,123.9h14.4c4.1,0,7.2,1.2,9.3,3.2c1.7,1.8,2.7,4.2,2.7,7v0.1c0,5.3-3.2,8.5-7.7,9.8l8.7,12.2h-6.7   l-7.9-11.3h-7.1v11.3h-5.7V123.9z M926.1,139.9c4.1,0,6.6-2.1,6.6-5.4v-0.1c0-3.5-2.5-5.4-6.7-5.4h-8.3v10.8H926.1z" id="path34"/>
	<path class="st0" d="M955.8,123.7h5.3l14.2,32.5h-6l-3.3-7.8h-15.3l-3.3,7.8h-5.8L955.8,123.7z M963.9,143.4l-5.6-12.9l-5.5,12.9   H963.9z" id="path36"/>
	<path class="st0" d="M979.7,123.9h6l9.8,15.3l9.8-15.3h6v32.3h-5.7V133l-10.2,15.2h-0.2l-10.1-15.1v23.1h-5.6V123.9z" id="path38"/>
	<path class="st0" d="M1018.6,123.9h24v5.1h-18.3v8.4h16.2v5.1h-16.2v8.7h18.5v5.1h-24.2V123.9z" id="path40"/>
	<path class="st0" d="M1048.4,123.9h5.3l17.3,22.3v-22.3h5.6v32.3h-4.8l-17.8-23v23h-5.6V123.9z" id="path42"/>
	<path class="st0" d="M1091.6,129.2h-10.2v-5.3h26.2v5.3h-10.2v27.1h-5.7V129.2z" id="path44"/>
	<path class="st0" d="M1109.3,140.1L1109.3,140.1c0-9.2,7-16.8,16.9-16.8c9.9,0,16.9,7.5,16.9,16.6v0.1c0,9.1-7,16.7-16.9,16.7   C1116.2,156.8,1109.3,149.2,1109.3,140.1z M1137.1,140.1L1137.1,140.1c0-6.4-4.6-11.6-11-11.6c-6.4,0-10.9,5.1-10.9,11.4v0.1   c0,6.3,4.6,11.5,11,11.5C1132.6,151.5,1137.1,146.4,1137.1,140.1z" id="path46"/>
	<path class="st0" d="M721.2,167.4h14.4c4.1,0,7.2,1.2,9.3,3.2c1.7,1.8,2.7,4.2,2.7,7v0.1c0,5.3-3.2,8.5-7.7,9.8l8.7,12.2h-6.7   l-7.9-11.3h-7.1v11.3h-5.7V167.4z M735.2,183.4c4.1,0,6.6-2.1,6.6-5.4v-0.1c0-3.5-2.5-5.4-6.7-5.4h-8.3v10.8H735.2z" id="path48"/>
	<path class="st0" d="M753.4,167.4h24v5.1h-18.3v8.4h16.2v5.1h-16.2v8.7h18.5v5.1h-24.2V167.4z" id="path50"/>
	<path class="st0" d="M783.2,167.4h6l9.8,15.3l9.8-15.3h6v32.3h-5.7v-23.2l-10.2,15.2h-0.2l-10.1-15.1v23.1h-5.6V167.4z" id="path52"/>
	<path class="st0" d="M820.7,183.6L820.7,183.6c0-9.2,7-16.8,16.9-16.8c9.9,0,16.9,7.5,16.9,16.6v0.1c0,9.1-7,16.7-16.9,16.7   C827.6,200.3,820.7,192.7,820.7,183.6z M848.5,183.6L848.5,183.6c0-6.4-4.6-11.6-11-11.6c-6.4,0-10.9,5.1-10.9,11.4v0.1   c0,6.3,4.6,11.5,11,11.5C844,195,848.5,189.9,848.5,183.6z" id="path54"/>
	<path class="st0" d="M866.4,172.7h-10.2v-5.3h26.2v5.3h-10.2v27.1h-5.7V172.7z" id="path56"/>
	<path class="st0" d="M884,183.6L884,183.6c0-9.2,7-16.8,16.9-16.8s16.9,7.5,16.9,16.6v0.1c0,9.1-7,16.7-16.9,16.7   C891,200.3,884,192.7,884,183.6z M911.9,183.6L911.9,183.6c0-6.4-4.6-11.6-11-11.6c-6.4,0-10.9,5.1-10.9,11.4v0.1   c0,6.3,4.6,11.5,11,11.5C907.4,195,911.9,189.9,911.9,183.6z" id="path58"/>
</g>
<path class="st0" d="M0,140.5V140c0-41.7,32.1-74.5,75.5-74.5c29.3,0,48.1,12.3,60.8,29.9l-29.9,23.1c-8.2-10.2-17.6-16.8-31.3-16.8  c-20.1,0-34.2,17-34.2,37.9v0.4c0,21.5,14.1,38.3,34.2,38.3c14.9,0,23.7-7,32.3-17.4l29.9,21.3c-13.5,18.6-31.7,32.3-63.4,32.3  C32.9,214.5,0,183.2,0,140.5z" id="path62"/>
<path class="st0" d="M301,68.4h67.7c21.9,0,37,5.7,46.7,15.6c8.4,8.2,12.7,19.2,12.7,33.4v0.4c0,21.9-11.7,36.4-29.5,44l34.2,49.9  H387l-28.9-43.4h-17.4v43.4H301V68.4z M366.9,137.2c13.5,0,21.3-6.5,21.3-17v-0.4c0-11.3-8.2-17-21.5-17h-26v34.4H366.9z" id="path64"/>
<path class="st0" d="M141.5,68.4h41.9l34.2,55.5l34.2-55.5h41.9v143.2h-39.5v-82.3l-36.6,56.1h-0.8l-36.4-55.7v81.8h-38.9V68.4z" id="path66"/>
<path class="st1" d="M500.5,248.5c-9-16.8-14.2-36.1-14.2-56.5c0-44.9,24.8-84.1,61.4-104.5c17.2-9.6,37.1-15.1,58.2-15.1  c32.9,0,62.7,13.3,84.4,34.8c4.2,4.2,11.3,0.2,9.9-5.6c-7.6-30.7-25.9-57.3-50.6-75.5c-22.1-16.3-49.4-26-79-26.1  c-73.4-0.2-133.7,59.4-134.4,132.7C435.7,181.8,461.6,224.8,500.5,248.5z" id="path68" style="fill:#007ecf;fill-opacity:1"/>
<path class="st2" d="M500.5,248.5c20.3,12.4,44.1,19.5,69.7,19.5c16.3,0,31.8-2.9,46.3-8.2c-48.5-15.2-83.7-60.6-83.7-114.2  c0-40.5,32.8-73.3,73.3-73.3c-21.1,0-41,5.5-58.2,15.1c-36.6,20.4-61.4,59.6-61.4,104.5C486.3,212.4,491.4,231.7,500.5,248.5z" id="path70" style="fill:#00be24;fill-opacity:1"/>
<path class="st3" d="M665.5,205.1c-4.1-4.1-10.5-4.6-15.1-1.1c-12.3,9.4-27.7,15-44.4,15c-40.5,0-73.3-32.8-73.3-73.3  c0,53.6,35.2,98.9,83.7,114.2c20.4-7.5,38.4-19.8,52.8-35.5c4.2-4.6,4-11.6-0.4-15.9C667.7,207.3,666.6,206.2,665.5,205.1z" id="path72"/>
</svg>