<svg version="1.1" xmlns="http://www.w3.org/2000/svg" xmlns:xlink="http://www.w3.org/1999/xlink" x="0px" y="0px"
	 width="1143.05px" height="268.02px" viewBox="0 0 1143.05 268.02" style="enable-background:new 0 0 1143.05 268.02;"
	 xml:space="preserve">
<style type="text/css">
	.st0{fill:#2B2F35;}
	.st1{fill:#D92B3F;}
	.st2{fill:#F58A1F;}
	.st3{fill:#FFCE03;}
</style>
<defs>
</defs>
<path class="st0" d="M0,140.45v-0.41C0,98.3,32.13,65.56,75.5,65.56c29.26,0,48.09,12.27,60.77,29.87l-29.87,23.12
	c-8.18-10.23-17.6-16.78-31.31-16.78c-20.05,0-34.17,16.98-34.17,37.85v0.41c0,21.49,14.12,38.27,34.17,38.27
	c14.94,0,23.74-6.96,32.33-17.39l29.87,21.28c-13.5,18.62-31.71,32.33-63.43,32.33C32.94,214.53,0,183.22,0,140.45z"/>
<path class="st0" d="M301.02,68.43h67.73c21.89,0,37.04,5.73,46.65,15.55c8.39,8.18,12.68,19.23,12.68,33.36v0.41
	c0,21.89-11.66,36.42-29.46,44l34.17,49.93h-45.83l-28.85-43.38h-17.39v43.38h-39.7V68.43z M366.91,137.18
	c13.5,0,21.28-6.55,21.28-16.99v-0.41c0-11.25-8.18-16.99-21.49-16.99h-25.99v34.38H366.91z"/>
<path class="st0" d="M141.5,68.43h41.95l34.17,55.45l34.17-55.45h41.95v143.24h-39.49V129.4l-36.63,56.07h-0.82l-36.42-55.66v81.85
	H141.5V68.43z"/>
<path class="st1" d="M500.48,248.51c-9.03-16.83-14.16-36.06-14.16-56.5c0-44.95,24.79-84.1,61.44-104.54
	c17.23-9.61,37.07-15.1,58.2-15.09c32.92,0,62.74,13.3,84.37,34.82c4.23,4.21,11.31,0.17,9.87-5.63
	c-7.64-30.73-25.89-57.27-50.63-75.51C627.43,9.76,600.11,0.09,570.54,0c-73.35-0.21-133.72,59.39-134.4,132.74
	C435.68,181.76,461.55,224.78,500.48,248.51z"/>
<path class="st2" d="M500.48,248.51c20.3,12.38,44.15,19.51,69.66,19.51c16.26,0,31.84-2.9,46.25-8.2
	c-48.53-15.25-83.74-60.59-83.74-114.15c0-40.48,32.81-73.29,73.29-73.29c-21.13,0-40.97,5.48-58.2,15.09
	c-36.65,20.45-61.44,59.6-61.44,104.54C486.31,212.45,491.44,231.68,500.48,248.51z"/>
<path class="st3" d="M665.46,205.05c-4.06-4.07-10.52-4.56-15.09-1.08c-12.32,9.4-27.72,14.99-44.41,14.99
	c-40.48,0-73.29-32.81-73.29-73.29c0,53.57,35.2,98.9,83.74,114.15c20.36-7.49,38.4-19.78,52.75-35.51
	c4.15-4.55,3.99-11.57-0.37-15.93C667.68,207.28,666.57,206.17,665.46,205.05z"/>
</svg>
