<svg version="1.1" xmlns="http://www.w3.org/2000/svg" xmlns:xlink="http://www.w3.org/1999/xlink" x="0px" y="0px"
	 width="1143.05px" height="268.02px" viewBox="0 0 1143.05 268.02" style="enable-background:new 0 0 1143.05 268.02;"
	 xml:space="preserve">
<style type="text/css">
	.st0{fill:#FFFFFF;}
	.st1{fill:#D92B3F;}
	.st2{fill:#F58A1F;}
	.st3{fill:#FFCE03;}
</style>
<defs>
</defs>
<g>
	<path class="st0" d="M719.76,96.64v-0.09c0-9.19,6.88-16.71,16.66-16.71c5.96,0,9.56,2.08,12.65,5.03l-3.65,4.2
		c-2.59-2.4-5.36-4.02-9.05-4.02c-6.19,0-10.66,5.08-10.66,11.4v0.09c0,6.32,4.48,11.49,10.66,11.49c3.97,0,6.51-1.62,9.28-4.2
		l3.65,3.69c-3.37,3.51-7.06,5.72-13.11,5.72C726.78,113.25,719.76,105.92,719.76,96.64z"/>
	<path class="st0" d="M754.11,80.39h23.96v5.08h-18.28v8.4h16.2v5.08h-16.2v8.68h18.51v5.08h-24.19V80.39z"/>
	<path class="st0" d="M783.89,80.39h5.26l17.31,22.34V80.39h5.59v32.32h-4.76l-17.82-22.99v22.99h-5.59V80.39z"/>
	<path class="st0" d="M827.15,85.65H816.9v-5.26h26.22v5.26h-10.25v27.05h-5.72V85.65z"/>
	<path class="st0" d="M847.98,80.39h14.4c4.06,0,7.25,1.2,9.33,3.23c1.71,1.75,2.68,4.15,2.68,6.97v0.09c0,5.31-3.18,8.49-7.71,9.79
		l8.73,12.23h-6.69l-7.94-11.26h-7.11v11.26h-5.68V80.39z M861.96,96.41c4.06,0,6.65-2.12,6.65-5.4v-0.09
		c0-3.46-2.49-5.35-6.69-5.35h-8.26v10.85H861.96z"/>
	<path class="st0" d="M878.77,96.64v-0.09c0-9.09,7.02-16.71,16.94-16.71s16.85,7.52,16.85,16.62v0.09c0,9.1-7.02,16.71-16.94,16.71
		C885.7,113.25,878.77,105.73,878.77,96.64z M906.61,96.64v-0.09c0-6.28-4.57-11.49-10.99-11.49c-6.42,0-10.89,5.13-10.89,11.4v0.09
		c0,6.28,4.57,11.49,10.99,11.49C902.13,108.04,906.61,102.91,906.61,96.64z"/>
	<path class="st0" d="M930.99,80.39h12.05c10.16,0,17.17,6.97,17.17,16.07v0.09c0,9.1-7.02,16.16-17.17,16.16h-12.05V80.39z
		 M943.04,107.53c6.79,0,11.22-4.57,11.22-10.89v-0.09c0-6.32-4.43-10.99-11.22-10.99h-6.37v21.97H943.04z"/>
	<path class="st0" d="M965.94,80.39h23.96v5.08h-18.28v8.4h16.2v5.08h-16.2v8.68h18.51v5.08h-24.19V80.39z"/>
	<path class="st0" d="M721.19,123.89h6.05l9.83,15.28l9.83-15.28h6.05v32.32h-5.68v-23.17l-10.2,15.23h-0.18l-10.11-15.14v23.08
		h-5.59V123.89z"/>
	<path class="st0" d="M758.68,140.14v-0.09c0-9.09,7.02-16.71,16.94-16.71s16.85,7.52,16.85,16.62v0.09
		c0,9.1-7.02,16.71-16.94,16.71C765.61,156.76,758.68,149.23,758.68,140.14z M786.52,140.14v-0.09c0-6.28-4.57-11.49-10.99-11.49
		c-6.42,0-10.89,5.13-10.89,11.4v0.09c0,6.28,4.57,11.49,10.99,11.49C782.04,151.54,786.52,146.42,786.52,140.14z"/>
	<path class="st0" d="M798.2,123.89h5.26l17.31,22.34v-22.34h5.59v32.32h-4.76l-17.82-22.99v22.99h-5.59V123.89z"/>
	<path class="st0" d="M833.85,123.89h5.68v32.32h-5.68V123.89z"/>
	<path class="st0" d="M854.95,129.15H844.7v-5.26h26.22v5.26h-10.25v27.05h-5.72V129.15z"/>
	<path class="st0" d="M872.58,140.14v-0.09c0-9.09,7.02-16.71,16.94-16.71c9.93,0,16.85,7.52,16.85,16.62v0.09
		c0,9.1-7.02,16.71-16.94,16.71C879.51,156.76,872.58,149.23,872.58,140.14z M900.42,140.14v-0.09c0-6.28-4.57-11.49-10.99-11.49
		c-6.42,0-10.89,5.13-10.89,11.4v0.09c0,6.28,4.57,11.49,10.99,11.49C895.94,151.54,900.42,146.42,900.42,140.14z"/>
	<path class="st0" d="M912.1,123.89h14.4c4.06,0,7.25,1.2,9.33,3.23c1.71,1.75,2.68,4.15,2.68,6.97v0.09c0,5.31-3.18,8.49-7.71,9.79
		l8.73,12.23h-6.69l-7.94-11.26h-7.11v11.26h-5.68V123.89z M926.09,139.91c4.06,0,6.65-2.12,6.65-5.4v-0.09
		c0-3.46-2.49-5.35-6.69-5.35h-8.26v10.85H926.09z"/>
	<path class="st0" d="M955.78,123.66h5.26l14.22,32.55h-6l-3.28-7.8H950.7l-3.32,7.8h-5.82L955.78,123.66z M963.91,143.37
		l-5.59-12.93l-5.54,12.93H963.91z"/>
	<path class="st0" d="M979.65,123.89h6.05l9.83,15.28l9.83-15.28h6.05v32.32h-5.68v-23.17l-10.2,15.23h-0.18l-10.11-15.14v23.08
		h-5.59V123.89z"/>
	<path class="st0" d="M1018.57,123.89h23.96v5.08h-18.28v8.4h16.2v5.08h-16.2v8.68h18.51v5.08h-24.19V123.89z"/>
	<path class="st0" d="M1048.35,123.89h5.26l17.31,22.34v-22.34h5.59v32.32h-4.76l-17.82-22.99v22.99h-5.59V123.89z"/>
	<path class="st0" d="M1091.61,129.15h-10.25v-5.26h26.22v5.26h-10.25v27.05h-5.72V129.15z"/>
	<path class="st0" d="M1109.25,140.14v-0.09c0-9.09,7.02-16.71,16.94-16.71c9.93,0,16.85,7.52,16.85,16.62v0.09
		c0,9.1-7.02,16.71-16.94,16.71C1116.18,156.76,1109.25,149.23,1109.25,140.14z M1137.09,140.14v-0.09
		c0-6.28-4.57-11.49-10.99-11.49c-6.42,0-10.89,5.13-10.89,11.4v0.09c0,6.28,4.57,11.49,10.99,11.49
		C1132.61,151.54,1137.09,146.42,1137.09,140.14z"/>
	<path class="st0" d="M721.19,167.39h14.4c4.06,0,7.25,1.2,9.33,3.23c1.71,1.75,2.68,4.15,2.68,6.97v0.09
		c0,5.31-3.18,8.49-7.71,9.79l8.73,12.23h-6.69l-7.94-11.26h-7.11v11.26h-5.68V167.39z M735.18,183.41c4.06,0,6.65-2.12,6.65-5.4
		v-0.09c0-3.46-2.49-5.35-6.69-5.35h-8.26v10.85H735.18z"/>
	<path class="st0" d="M753.42,167.39h23.96v5.08H759.1v8.4h16.2v5.08h-16.2v8.68h18.51v5.08h-24.19V167.39z"/>
	<path class="st0" d="M783.2,167.39h6.05l9.83,15.28l9.83-15.28h6.05v32.32h-5.68v-23.17l-10.2,15.23h-0.18l-10.11-15.14v23.08
		h-5.59V167.39z"/>
	<path class="st0" d="M820.69,183.64v-0.09c0-9.09,7.02-16.71,16.94-16.71c9.93,0,16.85,7.52,16.85,16.62v0.09
		c0,9.1-7.02,16.71-16.94,16.71C827.61,200.26,820.69,192.74,820.69,183.64z M848.53,183.64v-0.09c0-6.28-4.57-11.49-10.99-11.49
		c-6.42,0-10.89,5.13-10.89,11.4v0.09c0,6.28,4.57,11.49,10.99,11.49C844.05,195.04,848.53,189.92,848.53,183.64z"/>
	<path class="st0" d="M866.4,172.65h-10.25v-5.26h26.22v5.26h-10.25v27.05h-5.72V172.65z"/>
	<path class="st0" d="M884.04,183.64v-0.09c0-9.09,7.02-16.71,16.94-16.71s16.85,7.52,16.85,16.62v0.09
		c0,9.1-7.02,16.71-16.94,16.71C890.96,200.26,884.04,192.74,884.04,183.64z M911.87,183.64v-0.09c0-6.28-4.57-11.49-10.99-11.49
		c-6.42,0-10.89,5.13-10.89,11.4v0.09c0,6.28,4.57,11.49,10.99,11.49C907.4,195.04,911.87,189.92,911.87,183.64z"/>
</g>
<path class="st0" d="M0,140.45v-0.41C0,98.3,32.13,65.56,75.5,65.56c29.26,0,48.09,12.27,60.77,29.87l-29.87,23.12
	c-8.18-10.23-17.6-16.78-31.31-16.78c-20.05,0-34.17,16.98-34.17,37.85v0.41c0,21.49,14.12,38.27,34.17,38.27
	c14.94,0,23.74-6.96,32.33-17.39l29.87,21.28c-13.5,18.62-31.71,32.33-63.43,32.33C32.94,214.53,0,183.22,0,140.45z"/>
<path class="st0" d="M301.02,68.43h67.73c21.89,0,37.04,5.73,46.65,15.55c8.39,8.18,12.68,19.23,12.68,33.36v0.41
	c0,21.89-11.66,36.42-29.46,44l34.17,49.93h-45.83l-28.85-43.38h-17.39v43.38h-39.7V68.43z M366.91,137.18
	c13.5,0,21.28-6.55,21.28-16.99v-0.41c0-11.25-8.18-16.99-21.49-16.99h-25.99v34.38H366.91z"/>
<path class="st0" d="M141.5,68.43h41.95l34.17,55.45l34.17-55.45h41.95v143.24h-39.49V129.4l-36.63,56.07h-0.82l-36.42-55.66v81.85
	H141.5V68.43z"/>
<path class="st1" d="M500.48,248.51c-9.03-16.83-14.16-36.06-14.16-56.5c0-44.95,24.79-84.1,61.44-104.54
	c17.23-9.61,37.07-15.1,58.2-15.09c32.92,0,62.74,13.3,84.37,34.82c4.23,4.21,11.31,0.17,9.87-5.63
	c-7.64-30.73-25.89-57.27-50.63-75.51C627.43,9.76,600.11,0.09,570.54,0c-73.35-0.21-133.72,59.39-134.4,132.74
	C435.68,181.76,461.55,224.78,500.48,248.51z"/>
<path class="st2" d="M500.48,248.51c20.3,12.38,44.15,19.51,69.66,19.51c16.26,0,31.84-2.9,46.25-8.2
	c-48.53-15.25-83.74-60.59-83.74-114.15c0-40.48,32.81-73.29,73.29-73.29c-21.13,0-40.97,5.48-58.2,15.09
	c-36.65,20.45-61.44,59.6-61.44,104.54C486.31,212.45,491.44,231.68,500.48,248.51z"/>
<path class="st3" d="M665.46,205.05c-4.06-4.07-10.52-4.56-15.09-1.08c-12.32,9.4-27.72,14.99-44.41,14.99
	c-40.48,0-73.29-32.81-73.29-73.29c0,53.57,35.2,98.9,83.74,114.15c20.36-7.49,38.4-19.78,52.75-35.51
	c4.15-4.55,3.99-11.57-0.37-15.93C667.68,207.28,666.57,206.17,665.46,205.05z"/>
</svg>
